M48
; DRILL file {KiCad (6.0.4)} date Wed Jun 22 19:07:04 2022
; FORMAT={-:-/ absolute / metric / decimal}
; #@! TF.CreationDate,2022-06-22T19:07:04-03:00
; #@! TF.GenerationSoftware,Kicad,Pcbnew,(6.0.4)
; #@! TF.FileFunction,Plated,1,2,PTH
FMAT,2
METRIC
; #@! TA.AperFunction,Plated,PTH,ViaDrill
T1C0.400
; #@! TA.AperFunction,Plated,PTH,ComponentDrill
T2C1.000
%
G90
G05
T1
X104.87Y-85.37
X104.88Y-87.59
X106.42Y-85.37
X107.39Y-87.59
X107.97Y-85.37
X108.56Y-87.59
X109.57Y-85.37
X111.17Y-85.37
X111.22Y-87.59
X114.42Y-98.63
X114.42Y-101.23
X114.42Y-102.4
X114.42Y-105.06
X115.7Y-88.32
X115.71Y-91.31
X115.72Y-94.32
X116.57Y-98.74
X116.57Y-100.29
X116.57Y-101.84
X116.57Y-103.44
X116.57Y-105.04
X117.3Y-86.7
X117.31Y-89.69
X117.32Y-92.7
X118.7Y-88.32
X118.71Y-91.31
X118.72Y-94.32
X120.3Y-86.7
X120.31Y-89.69
X120.32Y-92.7
X121.7Y-88.32
X121.71Y-91.31
X121.72Y-94.32
X123.3Y-86.7
X123.31Y-89.69
X123.32Y-92.7
T2
X103.55Y-94.9
X103.55Y-97.44
X103.55Y-99.98
X103.55Y-102.52
X103.55Y-105.06
X103.55Y-107.6
X112.453Y-78.55
X114.993Y-78.55
X117.533Y-78.55
X120.073Y-78.55
X121.61Y-106.45
X122.613Y-78.55
X124.15Y-106.45
X125.153Y-78.55
X126.69Y-106.45
X127.693Y-78.55
X129.23Y-106.45
X131.77Y-106.45
X134.31Y-106.45
X136.98Y-89.82
X136.98Y-92.36
X136.98Y-94.9
X136.98Y-97.44
X136.98Y-99.98
X136.98Y-102.52
T0
M30
