G04 #@! TF.GenerationSoftware,KiCad,Pcbnew,(6.0.4)*
G04 #@! TF.CreationDate,2022-06-22T19:01:53-03:00*
G04 #@! TF.ProjectId,HTLRBL41L-10_Test_board_v3.0_rev1.0,48544c52-424c-4343-914c-2d31305f5465,rev?*
G04 #@! TF.SameCoordinates,Original*
G04 #@! TF.FileFunction,Legend,Top*
G04 #@! TF.FilePolarity,Positive*
%FSLAX46Y46*%
G04 Gerber Fmt 4.6, Leading zero omitted, Abs format (unit mm)*
G04 Created by KiCad (PCBNEW (6.0.4)) date 2022-06-22 19:01:53*
%MOMM*%
%LPD*%
G01*
G04 APERTURE LIST*
%ADD10C,0.080000*%
%ADD11C,0.150000*%
%ADD12C,0.090000*%
G04 #@! TA.AperFunction,Profile*
%ADD13C,0.050000*%
G04 #@! TD*
%ADD14C,0.120000*%
G04 APERTURE END LIST*
D10*
X129570000Y-80200000D02*
X129670000Y-80233333D01*
X129703333Y-80266666D01*
X129736666Y-80333333D01*
X129736666Y-80433333D01*
X129703333Y-80500000D01*
X129670000Y-80533333D01*
X129603333Y-80566666D01*
X129336666Y-80566666D01*
X129336666Y-79866666D01*
X129570000Y-79866666D01*
X129636666Y-79900000D01*
X129670000Y-79933333D01*
X129703333Y-80000000D01*
X129703333Y-80066666D01*
X129670000Y-80133333D01*
X129636666Y-80166666D01*
X129570000Y-80200000D01*
X129336666Y-80200000D01*
X130436666Y-80566666D02*
X130203333Y-80233333D01*
X130036666Y-80566666D02*
X130036666Y-79866666D01*
X130303333Y-79866666D01*
X130370000Y-79900000D01*
X130403333Y-79933333D01*
X130436666Y-80000000D01*
X130436666Y-80100000D01*
X130403333Y-80166666D01*
X130370000Y-80200000D01*
X130303333Y-80233333D01*
X130036666Y-80233333D01*
X130736666Y-80200000D02*
X130970000Y-80200000D01*
X131070000Y-80566666D02*
X130736666Y-80566666D01*
X130736666Y-79866666D01*
X131070000Y-79866666D01*
X131336666Y-80366666D02*
X131670000Y-80366666D01*
X131270000Y-80566666D02*
X131503333Y-79866666D01*
X131736666Y-80566666D01*
X131970000Y-80566666D02*
X131970000Y-79866666D01*
X132370000Y-80566666D02*
X132070000Y-80166666D01*
X132370000Y-79866666D02*
X131970000Y-80266666D01*
X132803333Y-79866666D02*
X132936666Y-79866666D01*
X133003333Y-79900000D01*
X133070000Y-79966666D01*
X133103333Y-80100000D01*
X133103333Y-80333333D01*
X133070000Y-80466666D01*
X133003333Y-80533333D01*
X132936666Y-80566666D01*
X132803333Y-80566666D01*
X132736666Y-80533333D01*
X132670000Y-80466666D01*
X132636666Y-80333333D01*
X132636666Y-80100000D01*
X132670000Y-79966666D01*
X132736666Y-79900000D01*
X132803333Y-79866666D01*
X133403333Y-79866666D02*
X133403333Y-80433333D01*
X133436666Y-80500000D01*
X133470000Y-80533333D01*
X133536666Y-80566666D01*
X133670000Y-80566666D01*
X133736666Y-80533333D01*
X133770000Y-80500000D01*
X133803333Y-80433333D01*
X133803333Y-79866666D01*
X134036666Y-79866666D02*
X134436666Y-79866666D01*
X134236666Y-80566666D02*
X134236666Y-79866666D01*
X135436666Y-80200000D02*
X135536666Y-80233333D01*
X135570000Y-80266666D01*
X135603333Y-80333333D01*
X135603333Y-80433333D01*
X135570000Y-80500000D01*
X135536666Y-80533333D01*
X135470000Y-80566666D01*
X135203333Y-80566666D01*
X135203333Y-79866666D01*
X135436666Y-79866666D01*
X135503333Y-79900000D01*
X135536666Y-79933333D01*
X135570000Y-80000000D01*
X135570000Y-80066666D01*
X135536666Y-80133333D01*
X135503333Y-80166666D01*
X135436666Y-80200000D01*
X135203333Y-80200000D01*
X136036666Y-79866666D02*
X136170000Y-79866666D01*
X136236666Y-79900000D01*
X136303333Y-79966666D01*
X136336666Y-80100000D01*
X136336666Y-80333333D01*
X136303333Y-80466666D01*
X136236666Y-80533333D01*
X136170000Y-80566666D01*
X136036666Y-80566666D01*
X135970000Y-80533333D01*
X135903333Y-80466666D01*
X135870000Y-80333333D01*
X135870000Y-80100000D01*
X135903333Y-79966666D01*
X135970000Y-79900000D01*
X136036666Y-79866666D01*
X136603333Y-80366666D02*
X136936666Y-80366666D01*
X136536666Y-80566666D02*
X136770000Y-79866666D01*
X137003333Y-80566666D01*
X137636666Y-80566666D02*
X137403333Y-80233333D01*
X137236666Y-80566666D02*
X137236666Y-79866666D01*
X137503333Y-79866666D01*
X137570000Y-79900000D01*
X137603333Y-79933333D01*
X137636666Y-80000000D01*
X137636666Y-80100000D01*
X137603333Y-80166666D01*
X137570000Y-80200000D01*
X137503333Y-80233333D01*
X137236666Y-80233333D01*
X137936666Y-80566666D02*
X137936666Y-79866666D01*
X138103333Y-79866666D01*
X138203333Y-79900000D01*
X138270000Y-79966666D01*
X138303333Y-80033333D01*
X138336666Y-80166666D01*
X138336666Y-80266666D01*
X138303333Y-80400000D01*
X138270000Y-80466666D01*
X138203333Y-80533333D01*
X138103333Y-80566666D01*
X137936666Y-80566666D01*
X139070000Y-79866666D02*
X139303333Y-80566666D01*
X139536666Y-79866666D01*
X139703333Y-79866666D02*
X140136666Y-79866666D01*
X139903333Y-80133333D01*
X140003333Y-80133333D01*
X140070000Y-80166666D01*
X140103333Y-80200000D01*
X140136666Y-80266666D01*
X140136666Y-80433333D01*
X140103333Y-80500000D01*
X140070000Y-80533333D01*
X140003333Y-80566666D01*
X139803333Y-80566666D01*
X139736666Y-80533333D01*
X139703333Y-80500000D01*
D11*
X130886666Y-79232380D02*
X130886666Y-78232380D01*
X130886666Y-78708571D02*
X131458095Y-78708571D01*
X131458095Y-79232380D02*
X131458095Y-78232380D01*
X131791428Y-78232380D02*
X132362857Y-78232380D01*
X132077142Y-79232380D02*
X132077142Y-78232380D01*
X133172380Y-79232380D02*
X132696190Y-79232380D01*
X132696190Y-78232380D01*
X134077142Y-79232380D02*
X133743809Y-78756190D01*
X133505714Y-79232380D02*
X133505714Y-78232380D01*
X133886666Y-78232380D01*
X133981904Y-78280000D01*
X134029523Y-78327619D01*
X134077142Y-78422857D01*
X134077142Y-78565714D01*
X134029523Y-78660952D01*
X133981904Y-78708571D01*
X133886666Y-78756190D01*
X133505714Y-78756190D01*
X134839047Y-78708571D02*
X134981904Y-78756190D01*
X135029523Y-78803809D01*
X135077142Y-78899047D01*
X135077142Y-79041904D01*
X135029523Y-79137142D01*
X134981904Y-79184761D01*
X134886666Y-79232380D01*
X134505714Y-79232380D01*
X134505714Y-78232380D01*
X134839047Y-78232380D01*
X134934285Y-78280000D01*
X134981904Y-78327619D01*
X135029523Y-78422857D01*
X135029523Y-78518095D01*
X134981904Y-78613333D01*
X134934285Y-78660952D01*
X134839047Y-78708571D01*
X134505714Y-78708571D01*
X135981904Y-79232380D02*
X135505714Y-79232380D01*
X135505714Y-78232380D01*
X136220000Y-78232380D02*
X136839047Y-78232380D01*
X136505714Y-78613333D01*
X136648571Y-78613333D01*
X136743809Y-78660952D01*
X136791428Y-78708571D01*
X136839047Y-78803809D01*
X136839047Y-79041904D01*
X136791428Y-79137142D01*
X136743809Y-79184761D01*
X136648571Y-79232380D01*
X136362857Y-79232380D01*
X136267619Y-79184761D01*
X136220000Y-79137142D01*
X137220000Y-78327619D02*
X137267619Y-78280000D01*
X137362857Y-78232380D01*
X137600952Y-78232380D01*
X137696190Y-78280000D01*
X137743809Y-78327619D01*
X137791428Y-78422857D01*
X137791428Y-78518095D01*
X137743809Y-78660952D01*
X137172380Y-79232380D01*
X137791428Y-79232380D01*
X138696190Y-79232380D02*
X138220000Y-79232380D01*
X138220000Y-78232380D01*
D12*
X113456666Y-103916666D02*
X113456666Y-104250000D01*
X112756666Y-104250000D01*
X113456666Y-103583333D02*
X113423333Y-103650000D01*
X113390000Y-103683333D01*
X113323333Y-103716666D01*
X113123333Y-103716666D01*
X113056666Y-103683333D01*
X113023333Y-103650000D01*
X112990000Y-103583333D01*
X112990000Y-103483333D01*
X113023333Y-103416666D01*
X113056666Y-103383333D01*
X113123333Y-103350000D01*
X113323333Y-103350000D01*
X113390000Y-103383333D01*
X113423333Y-103416666D01*
X113456666Y-103483333D01*
X113456666Y-103583333D01*
X113456666Y-102650000D02*
X113123333Y-102883333D01*
X113456666Y-103050000D02*
X112756666Y-103050000D01*
X112756666Y-102783333D01*
X112790000Y-102716666D01*
X112823333Y-102683333D01*
X112890000Y-102650000D01*
X112990000Y-102650000D01*
X113056666Y-102683333D01*
X113090000Y-102716666D01*
X113123333Y-102783333D01*
X113123333Y-103050000D01*
X113456666Y-102050000D02*
X113090000Y-102050000D01*
X113023333Y-102083333D01*
X112990000Y-102150000D01*
X112990000Y-102283333D01*
X113023333Y-102350000D01*
X113423333Y-102050000D02*
X113456666Y-102116666D01*
X113456666Y-102283333D01*
X113423333Y-102350000D01*
X113356666Y-102383333D01*
X113290000Y-102383333D01*
X113223333Y-102350000D01*
X113190000Y-102283333D01*
X113190000Y-102116666D01*
X113156666Y-102050000D01*
X113523333Y-101883333D02*
X113523333Y-101350000D01*
X113256666Y-101216666D02*
X113256666Y-100883333D01*
X113456666Y-101283333D02*
X112756666Y-101050000D01*
X113456666Y-100816666D01*
X113456666Y-100583333D02*
X112756666Y-100583333D01*
X113456666Y-100183333D01*
X112756666Y-100183333D01*
X112756666Y-99950000D02*
X112756666Y-99550000D01*
X113456666Y-99750000D02*
X112756666Y-99750000D01*
X106860000Y-84400000D02*
X106960000Y-84433333D01*
X106993333Y-84466666D01*
X107026666Y-84533333D01*
X107026666Y-84633333D01*
X106993333Y-84700000D01*
X106960000Y-84733333D01*
X106893333Y-84766666D01*
X106626666Y-84766666D01*
X106626666Y-84066666D01*
X106860000Y-84066666D01*
X106926666Y-84100000D01*
X106960000Y-84133333D01*
X106993333Y-84200000D01*
X106993333Y-84266666D01*
X106960000Y-84333333D01*
X106926666Y-84366666D01*
X106860000Y-84400000D01*
X106626666Y-84400000D01*
X107660000Y-84766666D02*
X107326666Y-84766666D01*
X107326666Y-84066666D01*
X107893333Y-84400000D02*
X108126666Y-84400000D01*
X108226666Y-84766666D02*
X107893333Y-84766666D01*
X107893333Y-84066666D01*
X108226666Y-84066666D01*
X108360000Y-84833333D02*
X108893333Y-84833333D01*
X109026666Y-84566666D02*
X109360000Y-84566666D01*
X108960000Y-84766666D02*
X109193333Y-84066666D01*
X109426666Y-84766666D01*
X109660000Y-84766666D02*
X109660000Y-84066666D01*
X110060000Y-84766666D01*
X110060000Y-84066666D01*
X110293333Y-84066666D02*
X110693333Y-84066666D01*
X110493333Y-84766666D02*
X110493333Y-84066666D01*
X111663333Y-76576666D02*
X111663333Y-75876666D01*
X111930000Y-75876666D01*
X111996666Y-75910000D01*
X112030000Y-75943333D01*
X112063333Y-76010000D01*
X112063333Y-76110000D01*
X112030000Y-76176666D01*
X111996666Y-76210000D01*
X111930000Y-76243333D01*
X111663333Y-76243333D01*
X112330000Y-76376666D02*
X112663333Y-76376666D01*
X112263333Y-76576666D02*
X112496666Y-75876666D01*
X112730000Y-76576666D01*
X113296666Y-75876666D02*
X112963333Y-75876666D01*
X112930000Y-76210000D01*
X112963333Y-76176666D01*
X113030000Y-76143333D01*
X113196666Y-76143333D01*
X113263333Y-76176666D01*
X113296666Y-76210000D01*
X113330000Y-76276666D01*
X113330000Y-76443333D01*
X113296666Y-76510000D01*
X113263333Y-76543333D01*
X113196666Y-76576666D01*
X113030000Y-76576666D01*
X112963333Y-76543333D01*
X112930000Y-76510000D01*
X114173333Y-76576666D02*
X114173333Y-75876666D01*
X114440000Y-75876666D01*
X114506666Y-75910000D01*
X114540000Y-75943333D01*
X114573333Y-76010000D01*
X114573333Y-76110000D01*
X114540000Y-76176666D01*
X114506666Y-76210000D01*
X114440000Y-76243333D01*
X114173333Y-76243333D01*
X114840000Y-76376666D02*
X115173333Y-76376666D01*
X114773333Y-76576666D02*
X115006666Y-75876666D01*
X115240000Y-76576666D01*
X115406666Y-75876666D02*
X115873333Y-75876666D01*
X115573333Y-76576666D01*
X116966666Y-75910000D02*
X116900000Y-75876666D01*
X116800000Y-75876666D01*
X116700000Y-75910000D01*
X116633333Y-75976666D01*
X116600000Y-76043333D01*
X116566666Y-76176666D01*
X116566666Y-76276666D01*
X116600000Y-76410000D01*
X116633333Y-76476666D01*
X116700000Y-76543333D01*
X116800000Y-76576666D01*
X116866666Y-76576666D01*
X116966666Y-76543333D01*
X117000000Y-76510000D01*
X117000000Y-76276666D01*
X116866666Y-76276666D01*
X117300000Y-76576666D02*
X117300000Y-75876666D01*
X117700000Y-76576666D01*
X117700000Y-75876666D01*
X118033333Y-76576666D02*
X118033333Y-75876666D01*
X118200000Y-75876666D01*
X118300000Y-75910000D01*
X118366666Y-75976666D01*
X118400000Y-76043333D01*
X118433333Y-76176666D01*
X118433333Y-76276666D01*
X118400000Y-76410000D01*
X118366666Y-76476666D01*
X118300000Y-76543333D01*
X118200000Y-76576666D01*
X118033333Y-76576666D01*
X118920000Y-76626666D02*
X118920000Y-75926666D01*
X119186666Y-75926666D01*
X119253333Y-75960000D01*
X119286666Y-75993333D01*
X119320000Y-76060000D01*
X119320000Y-76160000D01*
X119286666Y-76226666D01*
X119253333Y-76260000D01*
X119186666Y-76293333D01*
X118920000Y-76293333D01*
X119586666Y-76426666D02*
X119920000Y-76426666D01*
X119520000Y-76626666D02*
X119753333Y-75926666D01*
X119986666Y-76626666D01*
X120586666Y-76626666D02*
X120186666Y-76626666D01*
X120386666Y-76626666D02*
X120386666Y-75926666D01*
X120320000Y-76026666D01*
X120253333Y-76093333D01*
X120186666Y-76126666D01*
X121020000Y-75926666D02*
X121086666Y-75926666D01*
X121153333Y-75960000D01*
X121186666Y-75993333D01*
X121220000Y-76060000D01*
X121253333Y-76193333D01*
X121253333Y-76360000D01*
X121220000Y-76493333D01*
X121186666Y-76560000D01*
X121153333Y-76593333D01*
X121086666Y-76626666D01*
X121020000Y-76626666D01*
X120953333Y-76593333D01*
X120920000Y-76560000D01*
X120886666Y-76493333D01*
X120853333Y-76360000D01*
X120853333Y-76193333D01*
X120886666Y-76060000D01*
X120920000Y-75993333D01*
X120953333Y-75960000D01*
X121020000Y-75926666D01*
X121763333Y-76596666D02*
X121763333Y-75896666D01*
X122030000Y-75896666D01*
X122096666Y-75930000D01*
X122130000Y-75963333D01*
X122163333Y-76030000D01*
X122163333Y-76130000D01*
X122130000Y-76196666D01*
X122096666Y-76230000D01*
X122030000Y-76263333D01*
X121763333Y-76263333D01*
X122430000Y-76396666D02*
X122763333Y-76396666D01*
X122363333Y-76596666D02*
X122596666Y-75896666D01*
X122830000Y-76596666D01*
X123363333Y-76130000D02*
X123363333Y-76596666D01*
X123196666Y-75863333D02*
X123030000Y-76363333D01*
X123463333Y-76363333D01*
X124010000Y-76556666D02*
X124010000Y-75856666D01*
X124276666Y-75856666D01*
X124343333Y-75890000D01*
X124376666Y-75923333D01*
X124410000Y-75990000D01*
X124410000Y-76090000D01*
X124376666Y-76156666D01*
X124343333Y-76190000D01*
X124276666Y-76223333D01*
X124010000Y-76223333D01*
X124676666Y-76356666D02*
X125010000Y-76356666D01*
X124610000Y-76556666D02*
X124843333Y-75856666D01*
X125076666Y-76556666D01*
X125676666Y-76556666D02*
X125276666Y-76556666D01*
X125476666Y-76556666D02*
X125476666Y-75856666D01*
X125410000Y-75956666D01*
X125343333Y-76023333D01*
X125276666Y-76056666D01*
X125943333Y-75923333D02*
X125976666Y-75890000D01*
X126043333Y-75856666D01*
X126210000Y-75856666D01*
X126276666Y-75890000D01*
X126310000Y-75923333D01*
X126343333Y-75990000D01*
X126343333Y-76056666D01*
X126310000Y-76156666D01*
X125910000Y-76556666D01*
X126343333Y-76556666D01*
X126960000Y-76576666D02*
X126960000Y-75876666D01*
X127226666Y-75876666D01*
X127293333Y-75910000D01*
X127326666Y-75943333D01*
X127360000Y-76010000D01*
X127360000Y-76110000D01*
X127326666Y-76176666D01*
X127293333Y-76210000D01*
X127226666Y-76243333D01*
X126960000Y-76243333D01*
X127626666Y-76376666D02*
X127960000Y-76376666D01*
X127560000Y-76576666D02*
X127793333Y-75876666D01*
X128026666Y-76576666D01*
X128626666Y-76576666D02*
X128226666Y-76576666D01*
X128426666Y-76576666D02*
X128426666Y-75876666D01*
X128360000Y-75976666D01*
X128293333Y-76043333D01*
X128226666Y-76076666D01*
X129260000Y-75876666D02*
X128926666Y-75876666D01*
X128893333Y-76210000D01*
X128926666Y-76176666D01*
X128993333Y-76143333D01*
X129160000Y-76143333D01*
X129226666Y-76176666D01*
X129260000Y-76210000D01*
X129293333Y-76276666D01*
X129293333Y-76443333D01*
X129260000Y-76510000D01*
X129226666Y-76543333D01*
X129160000Y-76576666D01*
X128993333Y-76576666D01*
X128926666Y-76543333D01*
X128893333Y-76510000D01*
X139696666Y-90686666D02*
X138996666Y-90686666D01*
X138996666Y-90420000D01*
X139030000Y-90353333D01*
X139063333Y-90320000D01*
X139130000Y-90286666D01*
X139230000Y-90286666D01*
X139296666Y-90320000D01*
X139330000Y-90353333D01*
X139363333Y-90420000D01*
X139363333Y-90686666D01*
X139330000Y-89753333D02*
X139363333Y-89653333D01*
X139396666Y-89620000D01*
X139463333Y-89586666D01*
X139563333Y-89586666D01*
X139630000Y-89620000D01*
X139663333Y-89653333D01*
X139696666Y-89720000D01*
X139696666Y-89986666D01*
X138996666Y-89986666D01*
X138996666Y-89753333D01*
X139030000Y-89686666D01*
X139063333Y-89653333D01*
X139130000Y-89620000D01*
X139196666Y-89620000D01*
X139263333Y-89653333D01*
X139296666Y-89686666D01*
X139330000Y-89753333D01*
X139330000Y-89986666D01*
X139696666Y-89253333D02*
X139696666Y-89120000D01*
X139663333Y-89053333D01*
X139630000Y-89020000D01*
X139530000Y-88953333D01*
X139396666Y-88920000D01*
X139130000Y-88920000D01*
X139063333Y-88953333D01*
X139030000Y-88986666D01*
X138996666Y-89053333D01*
X138996666Y-89186666D01*
X139030000Y-89253333D01*
X139063333Y-89286666D01*
X139130000Y-89320000D01*
X139296666Y-89320000D01*
X139363333Y-89286666D01*
X139396666Y-89253333D01*
X139430000Y-89186666D01*
X139430000Y-89053333D01*
X139396666Y-88986666D01*
X139363333Y-88953333D01*
X139296666Y-88920000D01*
X139016666Y-93206666D02*
X139016666Y-92773333D01*
X139283333Y-93006666D01*
X139283333Y-92906666D01*
X139316666Y-92840000D01*
X139350000Y-92806666D01*
X139416666Y-92773333D01*
X139583333Y-92773333D01*
X139650000Y-92806666D01*
X139683333Y-92840000D01*
X139716666Y-92906666D01*
X139716666Y-93106666D01*
X139683333Y-93173333D01*
X139650000Y-93206666D01*
X139016666Y-92573333D02*
X139716666Y-92340000D01*
X139016666Y-92106666D01*
X139016666Y-91940000D02*
X139016666Y-91506666D01*
X139283333Y-91740000D01*
X139283333Y-91640000D01*
X139316666Y-91573333D01*
X139350000Y-91540000D01*
X139416666Y-91506666D01*
X139583333Y-91506666D01*
X139650000Y-91540000D01*
X139683333Y-91573333D01*
X139716666Y-91640000D01*
X139716666Y-91840000D01*
X139683333Y-91906666D01*
X139650000Y-91940000D01*
X139016666Y-95756666D02*
X139016666Y-95323333D01*
X139283333Y-95556666D01*
X139283333Y-95456666D01*
X139316666Y-95390000D01*
X139350000Y-95356666D01*
X139416666Y-95323333D01*
X139583333Y-95323333D01*
X139650000Y-95356666D01*
X139683333Y-95390000D01*
X139716666Y-95456666D01*
X139716666Y-95656666D01*
X139683333Y-95723333D01*
X139650000Y-95756666D01*
X139016666Y-95123333D02*
X139716666Y-94890000D01*
X139016666Y-94656666D01*
X139016666Y-94490000D02*
X139016666Y-94056666D01*
X139283333Y-94290000D01*
X139283333Y-94190000D01*
X139316666Y-94123333D01*
X139350000Y-94090000D01*
X139416666Y-94056666D01*
X139583333Y-94056666D01*
X139650000Y-94090000D01*
X139683333Y-94123333D01*
X139716666Y-94190000D01*
X139716666Y-94390000D01*
X139683333Y-94456666D01*
X139650000Y-94490000D01*
X139656666Y-98266666D02*
X138956666Y-98266666D01*
X138956666Y-98000000D01*
X138990000Y-97933333D01*
X139023333Y-97900000D01*
X139090000Y-97866666D01*
X139190000Y-97866666D01*
X139256666Y-97900000D01*
X139290000Y-97933333D01*
X139323333Y-98000000D01*
X139323333Y-98266666D01*
X139290000Y-97333333D02*
X139323333Y-97233333D01*
X139356666Y-97200000D01*
X139423333Y-97166666D01*
X139523333Y-97166666D01*
X139590000Y-97200000D01*
X139623333Y-97233333D01*
X139656666Y-97300000D01*
X139656666Y-97566666D01*
X138956666Y-97566666D01*
X138956666Y-97333333D01*
X138990000Y-97266666D01*
X139023333Y-97233333D01*
X139090000Y-97200000D01*
X139156666Y-97200000D01*
X139223333Y-97233333D01*
X139256666Y-97266666D01*
X139290000Y-97333333D01*
X139290000Y-97566666D01*
X138956666Y-96933333D02*
X138956666Y-96466666D01*
X139656666Y-96766666D01*
X139656666Y-100846666D02*
X138956666Y-100846666D01*
X138956666Y-100580000D01*
X138990000Y-100513333D01*
X139023333Y-100480000D01*
X139090000Y-100446666D01*
X139190000Y-100446666D01*
X139256666Y-100480000D01*
X139290000Y-100513333D01*
X139323333Y-100580000D01*
X139323333Y-100846666D01*
X139290000Y-99913333D02*
X139323333Y-99813333D01*
X139356666Y-99780000D01*
X139423333Y-99746666D01*
X139523333Y-99746666D01*
X139590000Y-99780000D01*
X139623333Y-99813333D01*
X139656666Y-99880000D01*
X139656666Y-100146666D01*
X138956666Y-100146666D01*
X138956666Y-99913333D01*
X138990000Y-99846666D01*
X139023333Y-99813333D01*
X139090000Y-99780000D01*
X139156666Y-99780000D01*
X139223333Y-99813333D01*
X139256666Y-99846666D01*
X139290000Y-99913333D01*
X139290000Y-100146666D01*
X138956666Y-99146666D02*
X138956666Y-99280000D01*
X138990000Y-99346666D01*
X139023333Y-99380000D01*
X139123333Y-99446666D01*
X139256666Y-99480000D01*
X139523333Y-99480000D01*
X139590000Y-99446666D01*
X139623333Y-99413333D01*
X139656666Y-99346666D01*
X139656666Y-99213333D01*
X139623333Y-99146666D01*
X139590000Y-99113333D01*
X139523333Y-99080000D01*
X139356666Y-99080000D01*
X139290000Y-99113333D01*
X139256666Y-99146666D01*
X139223333Y-99213333D01*
X139223333Y-99346666D01*
X139256666Y-99413333D01*
X139290000Y-99446666D01*
X139356666Y-99480000D01*
X138990000Y-103053333D02*
X138956666Y-103120000D01*
X138956666Y-103220000D01*
X138990000Y-103320000D01*
X139056666Y-103386666D01*
X139123333Y-103420000D01*
X139256666Y-103453333D01*
X139356666Y-103453333D01*
X139490000Y-103420000D01*
X139556666Y-103386666D01*
X139623333Y-103320000D01*
X139656666Y-103220000D01*
X139656666Y-103153333D01*
X139623333Y-103053333D01*
X139590000Y-103020000D01*
X139356666Y-103020000D01*
X139356666Y-103153333D01*
X139656666Y-102720000D02*
X138956666Y-102720000D01*
X139656666Y-102320000D01*
X138956666Y-102320000D01*
X139656666Y-101986666D02*
X138956666Y-101986666D01*
X138956666Y-101820000D01*
X138990000Y-101720000D01*
X139056666Y-101653333D01*
X139123333Y-101620000D01*
X139256666Y-101586666D01*
X139356666Y-101586666D01*
X139490000Y-101620000D01*
X139556666Y-101653333D01*
X139623333Y-101720000D01*
X139656666Y-101820000D01*
X139656666Y-101986666D01*
X133433333Y-109206666D02*
X133433333Y-108506666D01*
X133700000Y-108506666D01*
X133766666Y-108540000D01*
X133800000Y-108573333D01*
X133833333Y-108640000D01*
X133833333Y-108740000D01*
X133800000Y-108806666D01*
X133766666Y-108840000D01*
X133700000Y-108873333D01*
X133433333Y-108873333D01*
X134366666Y-108840000D02*
X134466666Y-108873333D01*
X134500000Y-108906666D01*
X134533333Y-108973333D01*
X134533333Y-109073333D01*
X134500000Y-109140000D01*
X134466666Y-109173333D01*
X134400000Y-109206666D01*
X134133333Y-109206666D01*
X134133333Y-108506666D01*
X134366666Y-108506666D01*
X134433333Y-108540000D01*
X134466666Y-108573333D01*
X134500000Y-108640000D01*
X134500000Y-108706666D01*
X134466666Y-108773333D01*
X134433333Y-108806666D01*
X134366666Y-108840000D01*
X134133333Y-108840000D01*
X134766666Y-108506666D02*
X135200000Y-108506666D01*
X134966666Y-108773333D01*
X135066666Y-108773333D01*
X135133333Y-108806666D01*
X135166666Y-108840000D01*
X135200000Y-108906666D01*
X135200000Y-109073333D01*
X135166666Y-109140000D01*
X135133333Y-109173333D01*
X135066666Y-109206666D01*
X134866666Y-109206666D01*
X134800000Y-109173333D01*
X134766666Y-109140000D01*
X130883333Y-109216666D02*
X130883333Y-108516666D01*
X131150000Y-108516666D01*
X131216666Y-108550000D01*
X131250000Y-108583333D01*
X131283333Y-108650000D01*
X131283333Y-108750000D01*
X131250000Y-108816666D01*
X131216666Y-108850000D01*
X131150000Y-108883333D01*
X130883333Y-108883333D01*
X131816666Y-108850000D02*
X131916666Y-108883333D01*
X131950000Y-108916666D01*
X131983333Y-108983333D01*
X131983333Y-109083333D01*
X131950000Y-109150000D01*
X131916666Y-109183333D01*
X131850000Y-109216666D01*
X131583333Y-109216666D01*
X131583333Y-108516666D01*
X131816666Y-108516666D01*
X131883333Y-108550000D01*
X131916666Y-108583333D01*
X131950000Y-108650000D01*
X131950000Y-108716666D01*
X131916666Y-108783333D01*
X131883333Y-108816666D01*
X131816666Y-108850000D01*
X131583333Y-108850000D01*
X132650000Y-109216666D02*
X132250000Y-109216666D01*
X132450000Y-109216666D02*
X132450000Y-108516666D01*
X132383333Y-108616666D01*
X132316666Y-108683333D01*
X132250000Y-108716666D01*
X128263333Y-109236666D02*
X128263333Y-108536666D01*
X128530000Y-108536666D01*
X128596666Y-108570000D01*
X128630000Y-108603333D01*
X128663333Y-108670000D01*
X128663333Y-108770000D01*
X128630000Y-108836666D01*
X128596666Y-108870000D01*
X128530000Y-108903333D01*
X128263333Y-108903333D01*
X129196666Y-108870000D02*
X129296666Y-108903333D01*
X129330000Y-108936666D01*
X129363333Y-109003333D01*
X129363333Y-109103333D01*
X129330000Y-109170000D01*
X129296666Y-109203333D01*
X129230000Y-109236666D01*
X128963333Y-109236666D01*
X128963333Y-108536666D01*
X129196666Y-108536666D01*
X129263333Y-108570000D01*
X129296666Y-108603333D01*
X129330000Y-108670000D01*
X129330000Y-108736666D01*
X129296666Y-108803333D01*
X129263333Y-108836666D01*
X129196666Y-108870000D01*
X128963333Y-108870000D01*
X129996666Y-108536666D02*
X129663333Y-108536666D01*
X129630000Y-108870000D01*
X129663333Y-108836666D01*
X129730000Y-108803333D01*
X129896666Y-108803333D01*
X129963333Y-108836666D01*
X129996666Y-108870000D01*
X130030000Y-108936666D01*
X130030000Y-109103333D01*
X129996666Y-109170000D01*
X129963333Y-109203333D01*
X129896666Y-109236666D01*
X129730000Y-109236666D01*
X129663333Y-109203333D01*
X129630000Y-109170000D01*
X125440000Y-109256666D02*
X125440000Y-108556666D01*
X125840000Y-109256666D01*
X125840000Y-108556666D01*
X126573333Y-109256666D02*
X126340000Y-108923333D01*
X126173333Y-109256666D02*
X126173333Y-108556666D01*
X126440000Y-108556666D01*
X126506666Y-108590000D01*
X126540000Y-108623333D01*
X126573333Y-108690000D01*
X126573333Y-108790000D01*
X126540000Y-108856666D01*
X126506666Y-108890000D01*
X126440000Y-108923333D01*
X126173333Y-108923333D01*
X126840000Y-109223333D02*
X126940000Y-109256666D01*
X127106666Y-109256666D01*
X127173333Y-109223333D01*
X127206666Y-109190000D01*
X127240000Y-109123333D01*
X127240000Y-109056666D01*
X127206666Y-108990000D01*
X127173333Y-108956666D01*
X127106666Y-108923333D01*
X126973333Y-108890000D01*
X126906666Y-108856666D01*
X126873333Y-108823333D01*
X126840000Y-108756666D01*
X126840000Y-108690000D01*
X126873333Y-108623333D01*
X126906666Y-108590000D01*
X126973333Y-108556666D01*
X127140000Y-108556666D01*
X127240000Y-108590000D01*
X127440000Y-108556666D02*
X127840000Y-108556666D01*
X127640000Y-109256666D02*
X127640000Y-108556666D01*
X123243333Y-109286666D02*
X123243333Y-108586666D01*
X123510000Y-108586666D01*
X123576666Y-108620000D01*
X123610000Y-108653333D01*
X123643333Y-108720000D01*
X123643333Y-108820000D01*
X123610000Y-108886666D01*
X123576666Y-108920000D01*
X123510000Y-108953333D01*
X123243333Y-108953333D01*
X124176666Y-108920000D02*
X124276666Y-108953333D01*
X124310000Y-108986666D01*
X124343333Y-109053333D01*
X124343333Y-109153333D01*
X124310000Y-109220000D01*
X124276666Y-109253333D01*
X124210000Y-109286666D01*
X123943333Y-109286666D01*
X123943333Y-108586666D01*
X124176666Y-108586666D01*
X124243333Y-108620000D01*
X124276666Y-108653333D01*
X124310000Y-108720000D01*
X124310000Y-108786666D01*
X124276666Y-108853333D01*
X124243333Y-108886666D01*
X124176666Y-108920000D01*
X123943333Y-108920000D01*
X124610000Y-108653333D02*
X124643333Y-108620000D01*
X124710000Y-108586666D01*
X124876666Y-108586666D01*
X124943333Y-108620000D01*
X124976666Y-108653333D01*
X125010000Y-108720000D01*
X125010000Y-108786666D01*
X124976666Y-108886666D01*
X124576666Y-109286666D01*
X125010000Y-109286666D01*
X121016666Y-108620000D02*
X120950000Y-108586666D01*
X120850000Y-108586666D01*
X120750000Y-108620000D01*
X120683333Y-108686666D01*
X120650000Y-108753333D01*
X120616666Y-108886666D01*
X120616666Y-108986666D01*
X120650000Y-109120000D01*
X120683333Y-109186666D01*
X120750000Y-109253333D01*
X120850000Y-109286666D01*
X120916666Y-109286666D01*
X121016666Y-109253333D01*
X121050000Y-109220000D01*
X121050000Y-108986666D01*
X120916666Y-108986666D01*
X121350000Y-109286666D02*
X121350000Y-108586666D01*
X121750000Y-109286666D01*
X121750000Y-108586666D01*
X122083333Y-109286666D02*
X122083333Y-108586666D01*
X122250000Y-108586666D01*
X122350000Y-108620000D01*
X122416666Y-108686666D01*
X122450000Y-108753333D01*
X122483333Y-108886666D01*
X122483333Y-108986666D01*
X122450000Y-109120000D01*
X122416666Y-109186666D01*
X122350000Y-109253333D01*
X122250000Y-109286666D01*
X122083333Y-109286666D01*
X101440000Y-107106666D02*
X101473333Y-107040000D01*
X101473333Y-106940000D01*
X101440000Y-106840000D01*
X101373333Y-106773333D01*
X101306666Y-106740000D01*
X101173333Y-106706666D01*
X101073333Y-106706666D01*
X100940000Y-106740000D01*
X100873333Y-106773333D01*
X100806666Y-106840000D01*
X100773333Y-106940000D01*
X100773333Y-107006666D01*
X100806666Y-107106666D01*
X100840000Y-107140000D01*
X101073333Y-107140000D01*
X101073333Y-107006666D01*
X100773333Y-107440000D02*
X101473333Y-107440000D01*
X100773333Y-107840000D01*
X101473333Y-107840000D01*
X100773333Y-108173333D02*
X101473333Y-108173333D01*
X101473333Y-108340000D01*
X101440000Y-108440000D01*
X101373333Y-108506666D01*
X101306666Y-108540000D01*
X101173333Y-108573333D01*
X101073333Y-108573333D01*
X100940000Y-108540000D01*
X100873333Y-108506666D01*
X100806666Y-108440000D01*
X100773333Y-108340000D01*
X100773333Y-108173333D01*
X101473333Y-104466666D02*
X101473333Y-104866666D01*
X100773333Y-104666666D02*
X101473333Y-104666666D01*
X101473333Y-105033333D02*
X100773333Y-105500000D01*
X101473333Y-105500000D02*
X100773333Y-105033333D01*
X100813333Y-102383333D02*
X101146666Y-102150000D01*
X100813333Y-101983333D02*
X101513333Y-101983333D01*
X101513333Y-102250000D01*
X101480000Y-102316666D01*
X101446666Y-102350000D01*
X101380000Y-102383333D01*
X101280000Y-102383333D01*
X101213333Y-102350000D01*
X101180000Y-102316666D01*
X101146666Y-102250000D01*
X101146666Y-101983333D01*
X101513333Y-102616666D02*
X100813333Y-103083333D01*
X101513333Y-103083333D02*
X100813333Y-102616666D01*
X100773333Y-99223333D02*
X101473333Y-99223333D01*
X101473333Y-99390000D01*
X101440000Y-99490000D01*
X101373333Y-99556666D01*
X101306666Y-99590000D01*
X101173333Y-99623333D01*
X101073333Y-99623333D01*
X100940000Y-99590000D01*
X100873333Y-99556666D01*
X100806666Y-99490000D01*
X100773333Y-99390000D01*
X100773333Y-99223333D01*
X100773333Y-99923333D02*
X101473333Y-99923333D01*
X101473333Y-100390000D02*
X101473333Y-100523333D01*
X101440000Y-100590000D01*
X101373333Y-100656666D01*
X101240000Y-100690000D01*
X101006666Y-100690000D01*
X100873333Y-100656666D01*
X100806666Y-100590000D01*
X100773333Y-100523333D01*
X100773333Y-100390000D01*
X100806666Y-100323333D01*
X100873333Y-100256666D01*
X101006666Y-100223333D01*
X101240000Y-100223333D01*
X101373333Y-100256666D01*
X101440000Y-100323333D01*
X101473333Y-100390000D01*
X100840000Y-97063333D02*
X100806666Y-97030000D01*
X100773333Y-96930000D01*
X100773333Y-96863333D01*
X100806666Y-96763333D01*
X100873333Y-96696666D01*
X100940000Y-96663333D01*
X101073333Y-96630000D01*
X101173333Y-96630000D01*
X101306666Y-96663333D01*
X101373333Y-96696666D01*
X101440000Y-96763333D01*
X101473333Y-96863333D01*
X101473333Y-96930000D01*
X101440000Y-97030000D01*
X101406666Y-97063333D01*
X100773333Y-97696666D02*
X100773333Y-97363333D01*
X101473333Y-97363333D01*
X100773333Y-97930000D02*
X101473333Y-97930000D01*
X100773333Y-98330000D02*
X101173333Y-98030000D01*
X101473333Y-98330000D02*
X101073333Y-97930000D01*
X101440000Y-94426666D02*
X101473333Y-94360000D01*
X101473333Y-94260000D01*
X101440000Y-94160000D01*
X101373333Y-94093333D01*
X101306666Y-94060000D01*
X101173333Y-94026666D01*
X101073333Y-94026666D01*
X100940000Y-94060000D01*
X100873333Y-94093333D01*
X100806666Y-94160000D01*
X100773333Y-94260000D01*
X100773333Y-94326666D01*
X100806666Y-94426666D01*
X100840000Y-94460000D01*
X101073333Y-94460000D01*
X101073333Y-94326666D01*
X100773333Y-94760000D02*
X101473333Y-94760000D01*
X100773333Y-95160000D01*
X101473333Y-95160000D01*
X100773333Y-95493333D02*
X101473333Y-95493333D01*
X101473333Y-95660000D01*
X101440000Y-95760000D01*
X101373333Y-95826666D01*
X101306666Y-95860000D01*
X101173333Y-95893333D01*
X101073333Y-95893333D01*
X100940000Y-95860000D01*
X100873333Y-95826666D01*
X100806666Y-95760000D01*
X100773333Y-95660000D01*
X100773333Y-95493333D01*
D13*
X100000000Y-75000000D02*
X100000000Y-110000000D01*
X140500000Y-75000000D02*
X100000000Y-75000000D01*
X140500000Y-110000000D02*
X140500000Y-75000000D01*
X100000000Y-110000000D02*
X140500000Y-110000000D01*
D11*
X128480357Y-85482380D02*
X129147023Y-86482380D01*
X129147023Y-85482380D02*
X128480357Y-86482380D01*
X130051785Y-86482380D02*
X129480357Y-86482380D01*
X129766071Y-86482380D02*
X129766071Y-85482380D01*
X129670833Y-85625238D01*
X129575595Y-85720476D01*
X129480357Y-85768095D01*
X133383333Y-87857142D02*
X133335714Y-87904761D01*
X133192857Y-87952380D01*
X133097619Y-87952380D01*
X132954761Y-87904761D01*
X132859523Y-87809523D01*
X132811904Y-87714285D01*
X132764285Y-87523809D01*
X132764285Y-87380952D01*
X132811904Y-87190476D01*
X132859523Y-87095238D01*
X132954761Y-87000000D01*
X133097619Y-86952380D01*
X133192857Y-86952380D01*
X133335714Y-87000000D01*
X133383333Y-87047619D01*
X134335714Y-87952380D02*
X133764285Y-87952380D01*
X134050000Y-87952380D02*
X134050000Y-86952380D01*
X133954761Y-87095238D01*
X133859523Y-87190476D01*
X133764285Y-87238095D01*
X133333333Y-89447142D02*
X133285714Y-89494761D01*
X133142857Y-89542380D01*
X133047619Y-89542380D01*
X132904761Y-89494761D01*
X132809523Y-89399523D01*
X132761904Y-89304285D01*
X132714285Y-89113809D01*
X132714285Y-88970952D01*
X132761904Y-88780476D01*
X132809523Y-88685238D01*
X132904761Y-88590000D01*
X133047619Y-88542380D01*
X133142857Y-88542380D01*
X133285714Y-88590000D01*
X133333333Y-88637619D01*
X133714285Y-88637619D02*
X133761904Y-88590000D01*
X133857142Y-88542380D01*
X134095238Y-88542380D01*
X134190476Y-88590000D01*
X134238095Y-88637619D01*
X134285714Y-88732857D01*
X134285714Y-88828095D01*
X134238095Y-88970952D01*
X133666666Y-89542380D01*
X134285714Y-89542380D01*
X101819523Y-82227142D02*
X101771904Y-82274761D01*
X101629047Y-82322380D01*
X101533809Y-82322380D01*
X101390952Y-82274761D01*
X101295714Y-82179523D01*
X101248095Y-82084285D01*
X101200476Y-81893809D01*
X101200476Y-81750952D01*
X101248095Y-81560476D01*
X101295714Y-81465238D01*
X101390952Y-81370000D01*
X101533809Y-81322380D01*
X101629047Y-81322380D01*
X101771904Y-81370000D01*
X101819523Y-81417619D01*
X102248095Y-82322380D02*
X102248095Y-81322380D01*
X102819523Y-82322380D01*
X102819523Y-81322380D01*
X103819523Y-82322380D02*
X103248095Y-82322380D01*
X103533809Y-82322380D02*
X103533809Y-81322380D01*
X103438571Y-81465238D01*
X103343333Y-81560476D01*
X103248095Y-81608095D01*
X109469523Y-108157142D02*
X109421904Y-108204761D01*
X109279047Y-108252380D01*
X109183809Y-108252380D01*
X109040952Y-108204761D01*
X108945714Y-108109523D01*
X108898095Y-108014285D01*
X108850476Y-107823809D01*
X108850476Y-107680952D01*
X108898095Y-107490476D01*
X108945714Y-107395238D01*
X109040952Y-107300000D01*
X109183809Y-107252380D01*
X109279047Y-107252380D01*
X109421904Y-107300000D01*
X109469523Y-107347619D01*
X109898095Y-108252380D02*
X109898095Y-107252380D01*
X110469523Y-108252380D01*
X110469523Y-107252380D01*
X110898095Y-107347619D02*
X110945714Y-107300000D01*
X111040952Y-107252380D01*
X111279047Y-107252380D01*
X111374285Y-107300000D01*
X111421904Y-107347619D01*
X111469523Y-107442857D01*
X111469523Y-107538095D01*
X111421904Y-107680952D01*
X110850476Y-108252380D01*
X111469523Y-108252380D01*
X113038095Y-82562380D02*
X113038095Y-83371904D01*
X113085714Y-83467142D01*
X113133333Y-83514761D01*
X113228571Y-83562380D01*
X113419047Y-83562380D01*
X113514285Y-83514761D01*
X113561904Y-83467142D01*
X113609523Y-83371904D01*
X113609523Y-82562380D01*
X114609523Y-83562380D02*
X114038095Y-83562380D01*
X114323809Y-83562380D02*
X114323809Y-82562380D01*
X114228571Y-82705238D01*
X114133333Y-82800476D01*
X114038095Y-82848095D01*
X103216666Y-92022380D02*
X103216666Y-92736666D01*
X103169047Y-92879523D01*
X103073809Y-92974761D01*
X102930952Y-93022380D01*
X102835714Y-93022380D01*
X104216666Y-93022380D02*
X103645238Y-93022380D01*
X103930952Y-93022380D02*
X103930952Y-92022380D01*
X103835714Y-92165238D01*
X103740476Y-92260476D01*
X103645238Y-92308095D01*
X136306666Y-105902380D02*
X136306666Y-106616666D01*
X136259047Y-106759523D01*
X136163809Y-106854761D01*
X136020952Y-106902380D01*
X135925714Y-106902380D01*
X136735238Y-105997619D02*
X136782857Y-105950000D01*
X136878095Y-105902380D01*
X137116190Y-105902380D01*
X137211428Y-105950000D01*
X137259047Y-105997619D01*
X137306666Y-106092857D01*
X137306666Y-106188095D01*
X137259047Y-106330952D01*
X136687619Y-106902380D01*
X137306666Y-106902380D01*
X136646666Y-86942380D02*
X136646666Y-87656666D01*
X136599047Y-87799523D01*
X136503809Y-87894761D01*
X136360952Y-87942380D01*
X136265714Y-87942380D01*
X137027619Y-86942380D02*
X137646666Y-86942380D01*
X137313333Y-87323333D01*
X137456190Y-87323333D01*
X137551428Y-87370952D01*
X137599047Y-87418571D01*
X137646666Y-87513809D01*
X137646666Y-87751904D01*
X137599047Y-87847142D01*
X137551428Y-87894761D01*
X137456190Y-87942380D01*
X137170476Y-87942380D01*
X137075238Y-87894761D01*
X137027619Y-87847142D01*
X109349666Y-78002380D02*
X109349666Y-78716666D01*
X109302047Y-78859523D01*
X109206809Y-78954761D01*
X109063952Y-79002380D01*
X108968714Y-79002380D01*
X110254428Y-78335714D02*
X110254428Y-79002380D01*
X110016333Y-77954761D02*
X109778238Y-78669047D01*
X110397285Y-78669047D01*
X130244999Y-88800000D02*
X130244999Y-87600000D01*
X128195001Y-88800000D02*
X128195001Y-87600000D01*
D14*
X104210000Y-87315000D02*
X104210000Y-88425000D01*
X104210000Y-84525000D02*
X104210000Y-85635000D01*
X100500000Y-87315000D02*
X100500000Y-88425000D01*
X100500000Y-84525000D02*
X100500000Y-85635000D01*
X104760000Y-86475000D02*
X105260000Y-86725000D01*
X105260000Y-86725000D02*
X105260000Y-86225000D01*
X105260000Y-86225000D02*
X104760000Y-86475000D01*
X115225000Y-104730000D02*
X115475000Y-105230000D01*
X115725000Y-104730000D02*
X115225000Y-104730000D01*
X115475000Y-105230000D02*
X115725000Y-104730000D01*
X113525000Y-109490000D02*
X114635000Y-109490000D01*
X116315000Y-109490000D02*
X117425000Y-109490000D01*
X113525000Y-105780000D02*
X114635000Y-105780000D01*
X116315000Y-105780000D02*
X117425000Y-105780000D01*
X114950000Y-84000000D02*
X113000000Y-84000000D01*
X124050000Y-84000000D02*
X126000000Y-84000000D01*
X126000000Y-85950000D02*
X126000000Y-84000000D01*
X126000000Y-97000000D02*
X126000000Y-95050000D01*
X126000000Y-97000000D02*
X124050000Y-97000000D01*
X114950000Y-97000000D02*
X113000000Y-97000000D01*
X113000000Y-95050000D02*
X113000000Y-97000000D01*
X113000000Y-84000000D02*
X113000000Y-85950000D01*
X102220000Y-108930000D02*
X104880000Y-108930000D01*
X102220000Y-96170000D02*
X102220000Y-108930000D01*
X104880000Y-96170000D02*
X104880000Y-108930000D01*
X102220000Y-96170000D02*
X104880000Y-96170000D01*
X102220000Y-94900000D02*
X102220000Y-93570000D01*
X102220000Y-93570000D02*
X103550000Y-93570000D01*
X135640000Y-105120000D02*
X135640000Y-106450000D01*
X134310000Y-105120000D02*
X135640000Y-105120000D01*
X133040000Y-105120000D02*
X133040000Y-107780000D01*
X133040000Y-107780000D02*
X120280000Y-107780000D01*
X133040000Y-105120000D02*
X120280000Y-105120000D01*
X120280000Y-105120000D02*
X120280000Y-107780000D01*
X135650000Y-103850000D02*
X138310000Y-103850000D01*
X135650000Y-91090000D02*
X135650000Y-103850000D01*
X138310000Y-91090000D02*
X138310000Y-103850000D01*
X135650000Y-91090000D02*
X138310000Y-91090000D01*
X135650000Y-89820000D02*
X135650000Y-88490000D01*
X135650000Y-88490000D02*
X136980000Y-88490000D01*
X113723000Y-79880000D02*
X113723000Y-77220000D01*
X113723000Y-79880000D02*
X129023000Y-79880000D01*
X129023000Y-79880000D02*
X129023000Y-77220000D01*
X113723000Y-77220000D02*
X129023000Y-77220000D01*
X111123000Y-77220000D02*
X112453000Y-77220000D01*
X111123000Y-78550000D02*
X111123000Y-77220000D01*
M02*
