G04 #@! TF.GenerationSoftware,KiCad,Pcbnew,(6.0.4)*
G04 #@! TF.CreationDate,2022-06-22T19:01:53-03:00*
G04 #@! TF.ProjectId,HTLRBL41L-10_Test_board_v3.0_rev1.0,48544c52-424c-4343-914c-2d31305f5465,rev?*
G04 #@! TF.SameCoordinates,Original*
G04 #@! TF.FileFunction,Soldermask,Top*
G04 #@! TF.FilePolarity,Negative*
%FSLAX46Y46*%
G04 Gerber Fmt 4.6, Leading zero omitted, Abs format (unit mm)*
G04 Created by KiCad (PCBNEW (6.0.4)) date 2022-06-22 19:01:53*
%MOMM*%
%LPD*%
G01*
G04 APERTURE LIST*
G04 Aperture macros list*
%AMRoundRect*
0 Rectangle with rounded corners*
0 $1 Rounding radius*
0 $2 $3 $4 $5 $6 $7 $8 $9 X,Y pos of 4 corners*
0 Add a 4 corners polygon primitive as box body*
4,1,4,$2,$3,$4,$5,$6,$7,$8,$9,$2,$3,0*
0 Add four circle primitives for the rounded corners*
1,1,$1+$1,$2,$3*
1,1,$1+$1,$4,$5*
1,1,$1+$1,$6,$7*
1,1,$1+$1,$8,$9*
0 Add four rect primitives between the rounded corners*
20,1,$1+$1,$2,$3,$4,$5,0*
20,1,$1+$1,$4,$5,$6,$7,0*
20,1,$1+$1,$6,$7,$8,$9,0*
20,1,$1+$1,$8,$9,$2,$3,0*%
%AMFreePoly0*
4,1,6,1.250000,-1.250000,-1.250000,-1.250000,-1.250000,0.500000,-0.500000,1.250000,1.250000,1.250000,1.250000,-1.250000,1.250000,-1.250000,$1*%
G04 Aperture macros list end*
G04 #@! TA.AperFunction,Profile*
%ADD10C,0.050000*%
G04 #@! TD*
%ADD11R,1.400000X0.900000*%
%ADD12RoundRect,0.147500X-0.147500X-0.172500X0.147500X-0.172500X0.147500X0.172500X-0.147500X0.172500X0*%
%ADD13RoundRect,0.147500X-0.172500X0.147500X-0.172500X-0.147500X0.172500X-0.147500X0.172500X0.147500X0*%
%ADD14RoundRect,0.147500X0.147500X0.172500X-0.147500X0.172500X-0.147500X-0.172500X0.147500X-0.172500X0*%
%ADD15R,3.600000X1.270000*%
%ADD16R,4.200000X1.350000*%
%ADD17R,1.350000X4.200000*%
%ADD18R,1.270000X3.600000*%
%ADD19R,2.500000X2.500000*%
%ADD20R,2.400000X0.750000*%
%ADD21R,0.750000X2.400000*%
%ADD22FreePoly0,0.000000*%
%ADD23R,1.700000X1.700000*%
%ADD24O,1.700000X1.700000*%
G04 APERTURE END LIST*
D10*
X100000000Y-75000000D02*
X100000000Y-110000000D01*
X140500000Y-75000000D02*
X100000000Y-75000000D01*
X140500000Y-110000000D02*
X140500000Y-75000000D01*
X100000000Y-110000000D02*
X140500000Y-110000000D01*
D11*
X129220000Y-88950000D03*
X129220000Y-87450000D03*
D12*
X131055000Y-87440000D03*
X132025000Y-87440000D03*
X132025000Y-88940000D03*
X131055000Y-88940000D03*
D13*
X109900000Y-87445000D03*
X109900000Y-86475000D03*
X106000000Y-87440000D03*
X106000000Y-86470000D03*
D14*
X114510000Y-99800000D03*
X115480000Y-99800000D03*
X115480000Y-103700000D03*
X114510000Y-103700000D03*
D15*
X102300000Y-86475000D03*
D16*
X102500000Y-89300000D03*
X102500000Y-83650000D03*
D17*
X112650000Y-107490000D03*
X118300000Y-107490000D03*
D18*
X115475000Y-107690000D03*
D14*
X108500000Y-86475000D03*
X107530000Y-86475000D03*
D13*
X115480000Y-102235000D03*
X115480000Y-101265000D03*
D19*
X122500000Y-93500000D03*
X122500000Y-90500000D03*
X122500000Y-87500000D03*
X119500000Y-93500000D03*
X119500000Y-90500000D03*
D20*
X113300000Y-86475000D03*
X113300000Y-87625000D03*
X113300000Y-88775000D03*
X113300000Y-89925000D03*
X113300000Y-91075000D03*
X113300000Y-92225000D03*
X113300000Y-93375000D03*
X113300000Y-94525000D03*
D21*
X115475000Y-96700000D03*
X116625000Y-96700000D03*
X117775000Y-96700000D03*
X118925000Y-96700000D03*
X120075000Y-96700000D03*
X121225000Y-96700000D03*
X122375000Y-96700000D03*
X123525000Y-96700000D03*
D20*
X125700000Y-94525000D03*
X125700000Y-93375000D03*
X125700000Y-92225000D03*
X125700000Y-91075000D03*
X125700000Y-89925000D03*
X125700000Y-88775000D03*
X125700000Y-87625000D03*
X125700000Y-86475000D03*
D21*
X123525000Y-84300000D03*
X122375000Y-84300000D03*
X121225000Y-84300000D03*
X120075000Y-84300000D03*
X118925000Y-84300000D03*
X117775000Y-84300000D03*
X116625000Y-84300000D03*
X115475000Y-84300000D03*
D19*
X119500000Y-87500000D03*
X116500000Y-93500000D03*
X116500000Y-90500000D03*
D22*
X116500000Y-87500000D03*
D23*
X103550000Y-94900000D03*
D24*
X103550000Y-97440000D03*
X103550000Y-99980000D03*
X103550000Y-102520000D03*
X103550000Y-105060000D03*
X103550000Y-107600000D03*
X121610000Y-106450000D03*
X124150000Y-106450000D03*
X126690000Y-106450000D03*
X129230000Y-106450000D03*
X131770000Y-106450000D03*
D23*
X134310000Y-106450000D03*
X136980000Y-89820000D03*
D24*
X136980000Y-92360000D03*
X136980000Y-94900000D03*
X136980000Y-97440000D03*
X136980000Y-99980000D03*
X136980000Y-102520000D03*
D23*
X112453000Y-78550000D03*
D24*
X114993000Y-78550000D03*
X117533000Y-78550000D03*
X120073000Y-78550000D03*
X122613000Y-78550000D03*
X125153000Y-78550000D03*
X127693000Y-78550000D03*
M02*
