G04 #@! TF.GenerationSoftware,KiCad,Pcbnew,(6.0.4)*
G04 #@! TF.CreationDate,2022-06-23T14:37:41-03:00*
G04 #@! TF.ProjectId,HTLRBL32L-10_EvB_V1.0_Rev6.1,48544c52-424c-4333-924c-2d31305f4576,6.0*
G04 #@! TF.SameCoordinates,Original*
G04 #@! TF.FileFunction,Paste,Top*
G04 #@! TF.FilePolarity,Positive*
%FSLAX46Y46*%
G04 Gerber Fmt 4.6, Leading zero omitted, Abs format (unit mm)*
G04 Created by KiCad (PCBNEW (6.0.4)) date 2022-06-23 14:37:41*
%MOMM*%
%LPD*%
G01*
G04 APERTURE LIST*
G04 Aperture macros list*
%AMRoundRect*
0 Rectangle with rounded corners*
0 $1 Rounding radius*
0 $2 $3 $4 $5 $6 $7 $8 $9 X,Y pos of 4 corners*
0 Add a 4 corners polygon primitive as box body*
4,1,4,$2,$3,$4,$5,$6,$7,$8,$9,$2,$3,0*
0 Add four circle primitives for the rounded corners*
1,1,$1+$1,$2,$3*
1,1,$1+$1,$4,$5*
1,1,$1+$1,$6,$7*
1,1,$1+$1,$8,$9*
0 Add four rect primitives between the rounded corners*
20,1,$1+$1,$2,$3,$4,$5,0*
20,1,$1+$1,$4,$5,$6,$7,0*
20,1,$1+$1,$6,$7,$8,$9,0*
20,1,$1+$1,$8,$9,$2,$3,0*%
%AMFreePoly0*
4,1,6,1.250000,-1.250000,-1.250000,-1.250000,-1.250000,0.500000,-0.500000,1.250000,1.250000,1.250000,1.250000,-1.250000,1.250000,-1.250000,$1*%
G04 Aperture macros list end*
G04 #@! TA.AperFunction,Profile*
%ADD10C,0.050000*%
G04 #@! TD*
%ADD11C,0.000100*%
%ADD12C,0.010000*%
%ADD13RoundRect,0.147500X-0.147500X-0.172500X0.147500X-0.172500X0.147500X0.172500X-0.147500X0.172500X0*%
%ADD14RoundRect,0.147500X-0.172500X0.147500X-0.172500X-0.147500X0.172500X-0.147500X0.172500X0.147500X0*%
%ADD15R,1.350000X0.400000*%
%ADD16R,1.550000X1.500000*%
%ADD17R,2.200000X1.050000*%
%ADD18R,1.050000X1.000000*%
%ADD19RoundRect,0.218750X-0.218750X-0.256250X0.218750X-0.256250X0.218750X0.256250X-0.218750X0.256250X0*%
%ADD20RoundRect,0.218750X0.256250X-0.218750X0.256250X0.218750X-0.256250X0.218750X-0.256250X-0.218750X0*%
%ADD21R,3.300000X1.000000*%
%ADD22R,2.900000X1.000000*%
%ADD23R,1.000000X2.900000*%
%ADD24R,1.000000X3.300000*%
%ADD25R,0.900000X0.800000*%
%ADD26RoundRect,0.147500X0.172500X-0.147500X0.172500X0.147500X-0.172500X0.147500X-0.172500X-0.147500X0*%
%ADD27RoundRect,0.147500X0.147500X0.172500X-0.147500X0.172500X-0.147500X-0.172500X0.147500X-0.172500X0*%
%ADD28R,0.580000X0.400000*%
%ADD29R,1.750000X2.500000*%
%ADD30R,1.000000X3.500000*%
%ADD31R,1.500000X3.400000*%
%ADD32R,0.650000X1.050000*%
%ADD33R,0.650000X0.250000*%
%ADD34R,1.800000X1.340000*%
%ADD35R,2.400000X0.750000*%
%ADD36R,0.750000X2.400000*%
%ADD37FreePoly0,180.000000*%
%ADD38R,2.500000X2.500000*%
%ADD39R,3.000000X1.270000*%
%ADD40R,4.200000X1.350000*%
G04 APERTURE END LIST*
D10*
X100000000Y-88664000D02*
X100000000Y-108476000D01*
X180010000Y-108476000D02*
X180010000Y-88664000D01*
X101524000Y-87140000D02*
G75*
G03*
X100000000Y-88664000I0J-1524000D01*
G01*
X180010000Y-88664000D02*
G75*
G03*
X178486000Y-87140000I-1524000J0D01*
G01*
X178486000Y-110000000D02*
G75*
G03*
X180010000Y-108476000I0J1524000D01*
G01*
X178486000Y-87140000D02*
X101524000Y-87140002D01*
X100000000Y-108476000D02*
G75*
G03*
X101524000Y-110000000I1524000J0D01*
G01*
X101524000Y-110000000D02*
X178486000Y-110000000D01*
D11*
G04 #@! TO.C,CN1*
X103070000Y-95070000D02*
X102900000Y-95070000D01*
X101530000Y-102070000D02*
X101700000Y-102070000D01*
G36*
X103075000Y-102070000D02*
G01*
X102875000Y-102070000D01*
X102874657Y-102056916D01*
X102873630Y-102043868D01*
X102871922Y-102030891D01*
X102869537Y-102018022D01*
X102866481Y-102005295D01*
X102862764Y-101992746D01*
X102858395Y-101980408D01*
X102853386Y-101968316D01*
X102847752Y-101956502D01*
X102841506Y-101945000D01*
X102834668Y-101933840D01*
X102827254Y-101923054D01*
X102819286Y-101912670D01*
X102810786Y-101902717D01*
X102801777Y-101893223D01*
X102792283Y-101884214D01*
X102782330Y-101875714D01*
X102771946Y-101867746D01*
X102761160Y-101860332D01*
X102750000Y-101853494D01*
X102738498Y-101847248D01*
X102726684Y-101841614D01*
X102714592Y-101836605D01*
X102702254Y-101832236D01*
X102689705Y-101828519D01*
X102676978Y-101825463D01*
X102664109Y-101823078D01*
X102651132Y-101821370D01*
X102638084Y-101820343D01*
X102625000Y-101820000D01*
X101975000Y-101820000D01*
X101961916Y-101820343D01*
X101948868Y-101821370D01*
X101935891Y-101823078D01*
X101923022Y-101825463D01*
X101910295Y-101828519D01*
X101897746Y-101832236D01*
X101885408Y-101836605D01*
X101873316Y-101841614D01*
X101861502Y-101847248D01*
X101850000Y-101853494D01*
X101838840Y-101860332D01*
X101828054Y-101867746D01*
X101817670Y-101875714D01*
X101807717Y-101884214D01*
X101798223Y-101893223D01*
X101789214Y-101902717D01*
X101780714Y-101912670D01*
X101772746Y-101923054D01*
X101765332Y-101933840D01*
X101758494Y-101945000D01*
X101752248Y-101956502D01*
X101746614Y-101968316D01*
X101741605Y-101980408D01*
X101737236Y-101992746D01*
X101733519Y-102005295D01*
X101730463Y-102018022D01*
X101728078Y-102030891D01*
X101726370Y-102043868D01*
X101725343Y-102056916D01*
X101725000Y-102070000D01*
X101525000Y-102070000D01*
X101525000Y-100870000D01*
X103075000Y-100870000D01*
X103075000Y-102070000D01*
G37*
X103075000Y-102070000D02*
X102875000Y-102070000D01*
X102874657Y-102056916D01*
X102873630Y-102043868D01*
X102871922Y-102030891D01*
X102869537Y-102018022D01*
X102866481Y-102005295D01*
X102862764Y-101992746D01*
X102858395Y-101980408D01*
X102853386Y-101968316D01*
X102847752Y-101956502D01*
X102841506Y-101945000D01*
X102834668Y-101933840D01*
X102827254Y-101923054D01*
X102819286Y-101912670D01*
X102810786Y-101902717D01*
X102801777Y-101893223D01*
X102792283Y-101884214D01*
X102782330Y-101875714D01*
X102771946Y-101867746D01*
X102761160Y-101860332D01*
X102750000Y-101853494D01*
X102738498Y-101847248D01*
X102726684Y-101841614D01*
X102714592Y-101836605D01*
X102702254Y-101832236D01*
X102689705Y-101828519D01*
X102676978Y-101825463D01*
X102664109Y-101823078D01*
X102651132Y-101821370D01*
X102638084Y-101820343D01*
X102625000Y-101820000D01*
X101975000Y-101820000D01*
X101961916Y-101820343D01*
X101948868Y-101821370D01*
X101935891Y-101823078D01*
X101923022Y-101825463D01*
X101910295Y-101828519D01*
X101897746Y-101832236D01*
X101885408Y-101836605D01*
X101873316Y-101841614D01*
X101861502Y-101847248D01*
X101850000Y-101853494D01*
X101838840Y-101860332D01*
X101828054Y-101867746D01*
X101817670Y-101875714D01*
X101807717Y-101884214D01*
X101798223Y-101893223D01*
X101789214Y-101902717D01*
X101780714Y-101912670D01*
X101772746Y-101923054D01*
X101765332Y-101933840D01*
X101758494Y-101945000D01*
X101752248Y-101956502D01*
X101746614Y-101968316D01*
X101741605Y-101980408D01*
X101737236Y-101992746D01*
X101733519Y-102005295D01*
X101730463Y-102018022D01*
X101728078Y-102030891D01*
X101726370Y-102043868D01*
X101725343Y-102056916D01*
X101725000Y-102070000D01*
X101525000Y-102070000D01*
X101525000Y-100870000D01*
X103075000Y-100870000D01*
X103075000Y-102070000D01*
G36*
X102601168Y-94570685D02*
G01*
X102627264Y-94572739D01*
X102653217Y-94576156D01*
X102678956Y-94580926D01*
X102704410Y-94587037D01*
X102729508Y-94594472D01*
X102754184Y-94603210D01*
X102778368Y-94613227D01*
X102801995Y-94624497D01*
X102825000Y-94636987D01*
X102847320Y-94650665D01*
X102868893Y-94665492D01*
X102889660Y-94681427D01*
X102909565Y-94698428D01*
X102928553Y-94716447D01*
X102946572Y-94735435D01*
X102963573Y-94755340D01*
X102979508Y-94776107D01*
X102994335Y-94797680D01*
X103008013Y-94820000D01*
X103020503Y-94843005D01*
X103031773Y-94866632D01*
X103041790Y-94890816D01*
X103050528Y-94915492D01*
X103057963Y-94940590D01*
X103064074Y-94966044D01*
X103068844Y-94991783D01*
X103072261Y-95017736D01*
X103074315Y-95043832D01*
X103075000Y-95070000D01*
X102875000Y-95070000D01*
X102874657Y-95056916D01*
X102873630Y-95043868D01*
X102871922Y-95030891D01*
X102869537Y-95018022D01*
X102866481Y-95005295D01*
X102862764Y-94992746D01*
X102858395Y-94980408D01*
X102853386Y-94968316D01*
X102847752Y-94956502D01*
X102841506Y-94945000D01*
X102834668Y-94933840D01*
X102827254Y-94923054D01*
X102819286Y-94912670D01*
X102810786Y-94902717D01*
X102801777Y-94893223D01*
X102792283Y-94884214D01*
X102782330Y-94875714D01*
X102771946Y-94867746D01*
X102761160Y-94860332D01*
X102750000Y-94853494D01*
X102738498Y-94847248D01*
X102726684Y-94841614D01*
X102714592Y-94836605D01*
X102702254Y-94832236D01*
X102689705Y-94828519D01*
X102676978Y-94825463D01*
X102664109Y-94823078D01*
X102651132Y-94821370D01*
X102638084Y-94820343D01*
X102625000Y-94820000D01*
X101975000Y-94820000D01*
X101961916Y-94820343D01*
X101948868Y-94821370D01*
X101935891Y-94823078D01*
X101923022Y-94825463D01*
X101910295Y-94828519D01*
X101897746Y-94832236D01*
X101885408Y-94836605D01*
X101873316Y-94841614D01*
X101861502Y-94847248D01*
X101850000Y-94853494D01*
X101838840Y-94860332D01*
X101828054Y-94867746D01*
X101817670Y-94875714D01*
X101807717Y-94884214D01*
X101798223Y-94893223D01*
X101789214Y-94902717D01*
X101780714Y-94912670D01*
X101772746Y-94923054D01*
X101765332Y-94933840D01*
X101758494Y-94945000D01*
X101752248Y-94956502D01*
X101746614Y-94968316D01*
X101741605Y-94980408D01*
X101737236Y-94992746D01*
X101733519Y-95005295D01*
X101730463Y-95018022D01*
X101728078Y-95030891D01*
X101726370Y-95043868D01*
X101725343Y-95056916D01*
X101725000Y-95070000D01*
X101525000Y-95070000D01*
X101525685Y-95043832D01*
X101527739Y-95017736D01*
X101531156Y-94991783D01*
X101535926Y-94966044D01*
X101542037Y-94940590D01*
X101549472Y-94915492D01*
X101558210Y-94890816D01*
X101568227Y-94866632D01*
X101579497Y-94843005D01*
X101591987Y-94820000D01*
X101605665Y-94797680D01*
X101620492Y-94776107D01*
X101636427Y-94755340D01*
X101653428Y-94735435D01*
X101671447Y-94716447D01*
X101690435Y-94698428D01*
X101710340Y-94681427D01*
X101731107Y-94665492D01*
X101752680Y-94650665D01*
X101775000Y-94636987D01*
X101798005Y-94624497D01*
X101821632Y-94613227D01*
X101845816Y-94603210D01*
X101870492Y-94594472D01*
X101895590Y-94587037D01*
X101921044Y-94580926D01*
X101946783Y-94576156D01*
X101972736Y-94572739D01*
X101998832Y-94570685D01*
X102025000Y-94570000D01*
X102575000Y-94570000D01*
X102601168Y-94570685D01*
G37*
X102601168Y-94570685D02*
X102627264Y-94572739D01*
X102653217Y-94576156D01*
X102678956Y-94580926D01*
X102704410Y-94587037D01*
X102729508Y-94594472D01*
X102754184Y-94603210D01*
X102778368Y-94613227D01*
X102801995Y-94624497D01*
X102825000Y-94636987D01*
X102847320Y-94650665D01*
X102868893Y-94665492D01*
X102889660Y-94681427D01*
X102909565Y-94698428D01*
X102928553Y-94716447D01*
X102946572Y-94735435D01*
X102963573Y-94755340D01*
X102979508Y-94776107D01*
X102994335Y-94797680D01*
X103008013Y-94820000D01*
X103020503Y-94843005D01*
X103031773Y-94866632D01*
X103041790Y-94890816D01*
X103050528Y-94915492D01*
X103057963Y-94940590D01*
X103064074Y-94966044D01*
X103068844Y-94991783D01*
X103072261Y-95017736D01*
X103074315Y-95043832D01*
X103075000Y-95070000D01*
X102875000Y-95070000D01*
X102874657Y-95056916D01*
X102873630Y-95043868D01*
X102871922Y-95030891D01*
X102869537Y-95018022D01*
X102866481Y-95005295D01*
X102862764Y-94992746D01*
X102858395Y-94980408D01*
X102853386Y-94968316D01*
X102847752Y-94956502D01*
X102841506Y-94945000D01*
X102834668Y-94933840D01*
X102827254Y-94923054D01*
X102819286Y-94912670D01*
X102810786Y-94902717D01*
X102801777Y-94893223D01*
X102792283Y-94884214D01*
X102782330Y-94875714D01*
X102771946Y-94867746D01*
X102761160Y-94860332D01*
X102750000Y-94853494D01*
X102738498Y-94847248D01*
X102726684Y-94841614D01*
X102714592Y-94836605D01*
X102702254Y-94832236D01*
X102689705Y-94828519D01*
X102676978Y-94825463D01*
X102664109Y-94823078D01*
X102651132Y-94821370D01*
X102638084Y-94820343D01*
X102625000Y-94820000D01*
X101975000Y-94820000D01*
X101961916Y-94820343D01*
X101948868Y-94821370D01*
X101935891Y-94823078D01*
X101923022Y-94825463D01*
X101910295Y-94828519D01*
X101897746Y-94832236D01*
X101885408Y-94836605D01*
X101873316Y-94841614D01*
X101861502Y-94847248D01*
X101850000Y-94853494D01*
X101838840Y-94860332D01*
X101828054Y-94867746D01*
X101817670Y-94875714D01*
X101807717Y-94884214D01*
X101798223Y-94893223D01*
X101789214Y-94902717D01*
X101780714Y-94912670D01*
X101772746Y-94923054D01*
X101765332Y-94933840D01*
X101758494Y-94945000D01*
X101752248Y-94956502D01*
X101746614Y-94968316D01*
X101741605Y-94980408D01*
X101737236Y-94992746D01*
X101733519Y-95005295D01*
X101730463Y-95018022D01*
X101728078Y-95030891D01*
X101726370Y-95043868D01*
X101725343Y-95056916D01*
X101725000Y-95070000D01*
X101525000Y-95070000D01*
X101525685Y-95043832D01*
X101527739Y-95017736D01*
X101531156Y-94991783D01*
X101535926Y-94966044D01*
X101542037Y-94940590D01*
X101549472Y-94915492D01*
X101558210Y-94890816D01*
X101568227Y-94866632D01*
X101579497Y-94843005D01*
X101591987Y-94820000D01*
X101605665Y-94797680D01*
X101620492Y-94776107D01*
X101636427Y-94755340D01*
X101653428Y-94735435D01*
X101671447Y-94716447D01*
X101690435Y-94698428D01*
X101710340Y-94681427D01*
X101731107Y-94665492D01*
X101752680Y-94650665D01*
X101775000Y-94636987D01*
X101798005Y-94624497D01*
X101821632Y-94613227D01*
X101845816Y-94603210D01*
X101870492Y-94594472D01*
X101895590Y-94587037D01*
X101921044Y-94580926D01*
X101946783Y-94576156D01*
X101972736Y-94572739D01*
X101998832Y-94570685D01*
X102025000Y-94570000D01*
X102575000Y-94570000D01*
X102601168Y-94570685D01*
G36*
X101725343Y-102083084D02*
G01*
X101726370Y-102096132D01*
X101728078Y-102109109D01*
X101730463Y-102121978D01*
X101733519Y-102134705D01*
X101737236Y-102147254D01*
X101741605Y-102159592D01*
X101746614Y-102171684D01*
X101752248Y-102183498D01*
X101758494Y-102195000D01*
X101765332Y-102206160D01*
X101772746Y-102216946D01*
X101780714Y-102227330D01*
X101789214Y-102237283D01*
X101798223Y-102246777D01*
X101807717Y-102255786D01*
X101817670Y-102264286D01*
X101828054Y-102272254D01*
X101838840Y-102279668D01*
X101850000Y-102286506D01*
X101861502Y-102292752D01*
X101873316Y-102298386D01*
X101885408Y-102303395D01*
X101897746Y-102307764D01*
X101910295Y-102311481D01*
X101923022Y-102314537D01*
X101935891Y-102316922D01*
X101948868Y-102318630D01*
X101961916Y-102319657D01*
X101975000Y-102320000D01*
X102625000Y-102320000D01*
X102638084Y-102319657D01*
X102651132Y-102318630D01*
X102664109Y-102316922D01*
X102676978Y-102314537D01*
X102689705Y-102311481D01*
X102702254Y-102307764D01*
X102714592Y-102303395D01*
X102726684Y-102298386D01*
X102738498Y-102292752D01*
X102750000Y-102286506D01*
X102761160Y-102279668D01*
X102771946Y-102272254D01*
X102782330Y-102264286D01*
X102792283Y-102255786D01*
X102801777Y-102246777D01*
X102810786Y-102237283D01*
X102819286Y-102227330D01*
X102827254Y-102216946D01*
X102834668Y-102206160D01*
X102841506Y-102195000D01*
X102847752Y-102183498D01*
X102853386Y-102171684D01*
X102858395Y-102159592D01*
X102862764Y-102147254D01*
X102866481Y-102134705D01*
X102869537Y-102121978D01*
X102871922Y-102109109D01*
X102873630Y-102096132D01*
X102874657Y-102083084D01*
X102875000Y-102070000D01*
X103075000Y-102070000D01*
X103074315Y-102096168D01*
X103072261Y-102122264D01*
X103068844Y-102148217D01*
X103064074Y-102173956D01*
X103057963Y-102199410D01*
X103050528Y-102224508D01*
X103041790Y-102249184D01*
X103031773Y-102273368D01*
X103020503Y-102296995D01*
X103008013Y-102320000D01*
X102994335Y-102342320D01*
X102979508Y-102363893D01*
X102963573Y-102384660D01*
X102946572Y-102404565D01*
X102928553Y-102423553D01*
X102909565Y-102441572D01*
X102889660Y-102458573D01*
X102868893Y-102474508D01*
X102847320Y-102489335D01*
X102825000Y-102503013D01*
X102801995Y-102515503D01*
X102778368Y-102526773D01*
X102754184Y-102536790D01*
X102729508Y-102545528D01*
X102704410Y-102552963D01*
X102678956Y-102559074D01*
X102653217Y-102563844D01*
X102627264Y-102567261D01*
X102601168Y-102569315D01*
X102575000Y-102570000D01*
X102025000Y-102570000D01*
X101998832Y-102569315D01*
X101972736Y-102567261D01*
X101946783Y-102563844D01*
X101921044Y-102559074D01*
X101895590Y-102552963D01*
X101870492Y-102545528D01*
X101845816Y-102536790D01*
X101821632Y-102526773D01*
X101798005Y-102515503D01*
X101775000Y-102503013D01*
X101752680Y-102489335D01*
X101731107Y-102474508D01*
X101710340Y-102458573D01*
X101690435Y-102441572D01*
X101671447Y-102423553D01*
X101653428Y-102404565D01*
X101636427Y-102384660D01*
X101620492Y-102363893D01*
X101605665Y-102342320D01*
X101591987Y-102320000D01*
X101579497Y-102296995D01*
X101568227Y-102273368D01*
X101558210Y-102249184D01*
X101549472Y-102224508D01*
X101542037Y-102199410D01*
X101535926Y-102173956D01*
X101531156Y-102148217D01*
X101527739Y-102122264D01*
X101525685Y-102096168D01*
X101525000Y-102070000D01*
X101725000Y-102070000D01*
X101725343Y-102083084D01*
G37*
X101725343Y-102083084D02*
X101726370Y-102096132D01*
X101728078Y-102109109D01*
X101730463Y-102121978D01*
X101733519Y-102134705D01*
X101737236Y-102147254D01*
X101741605Y-102159592D01*
X101746614Y-102171684D01*
X101752248Y-102183498D01*
X101758494Y-102195000D01*
X101765332Y-102206160D01*
X101772746Y-102216946D01*
X101780714Y-102227330D01*
X101789214Y-102237283D01*
X101798223Y-102246777D01*
X101807717Y-102255786D01*
X101817670Y-102264286D01*
X101828054Y-102272254D01*
X101838840Y-102279668D01*
X101850000Y-102286506D01*
X101861502Y-102292752D01*
X101873316Y-102298386D01*
X101885408Y-102303395D01*
X101897746Y-102307764D01*
X101910295Y-102311481D01*
X101923022Y-102314537D01*
X101935891Y-102316922D01*
X101948868Y-102318630D01*
X101961916Y-102319657D01*
X101975000Y-102320000D01*
X102625000Y-102320000D01*
X102638084Y-102319657D01*
X102651132Y-102318630D01*
X102664109Y-102316922D01*
X102676978Y-102314537D01*
X102689705Y-102311481D01*
X102702254Y-102307764D01*
X102714592Y-102303395D01*
X102726684Y-102298386D01*
X102738498Y-102292752D01*
X102750000Y-102286506D01*
X102761160Y-102279668D01*
X102771946Y-102272254D01*
X102782330Y-102264286D01*
X102792283Y-102255786D01*
X102801777Y-102246777D01*
X102810786Y-102237283D01*
X102819286Y-102227330D01*
X102827254Y-102216946D01*
X102834668Y-102206160D01*
X102841506Y-102195000D01*
X102847752Y-102183498D01*
X102853386Y-102171684D01*
X102858395Y-102159592D01*
X102862764Y-102147254D01*
X102866481Y-102134705D01*
X102869537Y-102121978D01*
X102871922Y-102109109D01*
X102873630Y-102096132D01*
X102874657Y-102083084D01*
X102875000Y-102070000D01*
X103075000Y-102070000D01*
X103074315Y-102096168D01*
X103072261Y-102122264D01*
X103068844Y-102148217D01*
X103064074Y-102173956D01*
X103057963Y-102199410D01*
X103050528Y-102224508D01*
X103041790Y-102249184D01*
X103031773Y-102273368D01*
X103020503Y-102296995D01*
X103008013Y-102320000D01*
X102994335Y-102342320D01*
X102979508Y-102363893D01*
X102963573Y-102384660D01*
X102946572Y-102404565D01*
X102928553Y-102423553D01*
X102909565Y-102441572D01*
X102889660Y-102458573D01*
X102868893Y-102474508D01*
X102847320Y-102489335D01*
X102825000Y-102503013D01*
X102801995Y-102515503D01*
X102778368Y-102526773D01*
X102754184Y-102536790D01*
X102729508Y-102545528D01*
X102704410Y-102552963D01*
X102678956Y-102559074D01*
X102653217Y-102563844D01*
X102627264Y-102567261D01*
X102601168Y-102569315D01*
X102575000Y-102570000D01*
X102025000Y-102570000D01*
X101998832Y-102569315D01*
X101972736Y-102567261D01*
X101946783Y-102563844D01*
X101921044Y-102559074D01*
X101895590Y-102552963D01*
X101870492Y-102545528D01*
X101845816Y-102536790D01*
X101821632Y-102526773D01*
X101798005Y-102515503D01*
X101775000Y-102503013D01*
X101752680Y-102489335D01*
X101731107Y-102474508D01*
X101710340Y-102458573D01*
X101690435Y-102441572D01*
X101671447Y-102423553D01*
X101653428Y-102404565D01*
X101636427Y-102384660D01*
X101620492Y-102363893D01*
X101605665Y-102342320D01*
X101591987Y-102320000D01*
X101579497Y-102296995D01*
X101568227Y-102273368D01*
X101558210Y-102249184D01*
X101549472Y-102224508D01*
X101542037Y-102199410D01*
X101535926Y-102173956D01*
X101531156Y-102148217D01*
X101527739Y-102122264D01*
X101525685Y-102096168D01*
X101525000Y-102070000D01*
X101725000Y-102070000D01*
X101725343Y-102083084D01*
G36*
X101725343Y-95083084D02*
G01*
X101726370Y-95096132D01*
X101728078Y-95109109D01*
X101730463Y-95121978D01*
X101733519Y-95134705D01*
X101737236Y-95147254D01*
X101741605Y-95159592D01*
X101746614Y-95171684D01*
X101752248Y-95183498D01*
X101758494Y-95195000D01*
X101765332Y-95206160D01*
X101772746Y-95216946D01*
X101780714Y-95227330D01*
X101789214Y-95237283D01*
X101798223Y-95246777D01*
X101807717Y-95255786D01*
X101817670Y-95264286D01*
X101828054Y-95272254D01*
X101838840Y-95279668D01*
X101850000Y-95286506D01*
X101861502Y-95292752D01*
X101873316Y-95298386D01*
X101885408Y-95303395D01*
X101897746Y-95307764D01*
X101910295Y-95311481D01*
X101923022Y-95314537D01*
X101935891Y-95316922D01*
X101948868Y-95318630D01*
X101961916Y-95319657D01*
X101975000Y-95320000D01*
X102625000Y-95320000D01*
X102638084Y-95319657D01*
X102651132Y-95318630D01*
X102664109Y-95316922D01*
X102676978Y-95314537D01*
X102689705Y-95311481D01*
X102702254Y-95307764D01*
X102714592Y-95303395D01*
X102726684Y-95298386D01*
X102738498Y-95292752D01*
X102750000Y-95286506D01*
X102761160Y-95279668D01*
X102771946Y-95272254D01*
X102782330Y-95264286D01*
X102792283Y-95255786D01*
X102801777Y-95246777D01*
X102810786Y-95237283D01*
X102819286Y-95227330D01*
X102827254Y-95216946D01*
X102834668Y-95206160D01*
X102841506Y-95195000D01*
X102847752Y-95183498D01*
X102853386Y-95171684D01*
X102858395Y-95159592D01*
X102862764Y-95147254D01*
X102866481Y-95134705D01*
X102869537Y-95121978D01*
X102871922Y-95109109D01*
X102873630Y-95096132D01*
X102874657Y-95083084D01*
X102875000Y-95070000D01*
X103075000Y-95070000D01*
X103075000Y-96270000D01*
X101525000Y-96270000D01*
X101525000Y-95070000D01*
X101725000Y-95070000D01*
X101725343Y-95083084D01*
G37*
X101725343Y-95083084D02*
X101726370Y-95096132D01*
X101728078Y-95109109D01*
X101730463Y-95121978D01*
X101733519Y-95134705D01*
X101737236Y-95147254D01*
X101741605Y-95159592D01*
X101746614Y-95171684D01*
X101752248Y-95183498D01*
X101758494Y-95195000D01*
X101765332Y-95206160D01*
X101772746Y-95216946D01*
X101780714Y-95227330D01*
X101789214Y-95237283D01*
X101798223Y-95246777D01*
X101807717Y-95255786D01*
X101817670Y-95264286D01*
X101828054Y-95272254D01*
X101838840Y-95279668D01*
X101850000Y-95286506D01*
X101861502Y-95292752D01*
X101873316Y-95298386D01*
X101885408Y-95303395D01*
X101897746Y-95307764D01*
X101910295Y-95311481D01*
X101923022Y-95314537D01*
X101935891Y-95316922D01*
X101948868Y-95318630D01*
X101961916Y-95319657D01*
X101975000Y-95320000D01*
X102625000Y-95320000D01*
X102638084Y-95319657D01*
X102651132Y-95318630D01*
X102664109Y-95316922D01*
X102676978Y-95314537D01*
X102689705Y-95311481D01*
X102702254Y-95307764D01*
X102714592Y-95303395D01*
X102726684Y-95298386D01*
X102738498Y-95292752D01*
X102750000Y-95286506D01*
X102761160Y-95279668D01*
X102771946Y-95272254D01*
X102782330Y-95264286D01*
X102792283Y-95255786D01*
X102801777Y-95246777D01*
X102810786Y-95237283D01*
X102819286Y-95227330D01*
X102827254Y-95216946D01*
X102834668Y-95206160D01*
X102841506Y-95195000D01*
X102847752Y-95183498D01*
X102853386Y-95171684D01*
X102858395Y-95159592D01*
X102862764Y-95147254D01*
X102866481Y-95134705D01*
X102869537Y-95121978D01*
X102871922Y-95109109D01*
X102873630Y-95096132D01*
X102874657Y-95083084D01*
X102875000Y-95070000D01*
X103075000Y-95070000D01*
X103075000Y-96270000D01*
X101525000Y-96270000D01*
X101525000Y-95070000D01*
X101725000Y-95070000D01*
X101725343Y-95083084D01*
G04 #@! TO.C,U2*
G36*
X115750000Y-103310000D02*
G01*
X114670000Y-103310000D01*
X114670000Y-101730000D01*
X115750000Y-101730000D01*
X115750000Y-103310000D01*
G37*
D12*
X115750000Y-103310000D02*
X114670000Y-103310000D01*
X114670000Y-101730000D01*
X115750000Y-101730000D01*
X115750000Y-103310000D01*
G04 #@! TD*
D13*
G04 #@! TO.C,C2*
X111201400Y-99630000D03*
X112171400Y-99630000D03*
G04 #@! TD*
G04 #@! TO.C,C6*
X122080500Y-97063780D03*
X123050500Y-97063780D03*
G04 #@! TD*
G04 #@! TO.C,C7*
X122080500Y-95742980D03*
X123050500Y-95742980D03*
G04 #@! TD*
D14*
G04 #@! TO.C,C8*
X118220000Y-103723800D03*
X118220000Y-104693800D03*
G04 #@! TD*
G04 #@! TO.C,C15*
X170275500Y-104796000D03*
X170275500Y-105766000D03*
G04 #@! TD*
G04 #@! TO.C,C16*
X170275500Y-92370000D03*
X170275500Y-93340000D03*
G04 #@! TD*
G04 #@! TO.C,C17*
X174090000Y-104793000D03*
X174090000Y-105763000D03*
G04 #@! TD*
G04 #@! TO.C,C18*
X174090000Y-92365000D03*
X174090000Y-93335000D03*
G04 #@! TD*
D15*
G04 #@! TO.C,CN1*
X105000000Y-97270000D03*
X105000000Y-97920000D03*
X105000000Y-98570000D03*
X105000000Y-99220000D03*
X105000000Y-99870000D03*
D16*
X102300000Y-97570000D03*
X102300000Y-99570000D03*
G04 #@! TD*
D17*
G04 #@! TO.C,CN5*
X177730000Y-103318000D03*
X177730000Y-106268000D03*
D18*
X176205000Y-104793000D03*
G04 #@! TD*
D17*
G04 #@! TO.C,CN6*
X177730000Y-90903000D03*
X177730000Y-93853000D03*
D18*
X176205000Y-92378000D03*
G04 #@! TD*
D19*
G04 #@! TO.C,D2*
X104419400Y-104818400D03*
X105994400Y-104818400D03*
G04 #@! TD*
D20*
G04 #@! TO.C,D3*
X127250000Y-97850000D03*
X127250000Y-96275000D03*
G04 #@! TD*
D21*
G04 #@! TO.C,J1*
X167450000Y-88470000D03*
D22*
X162250000Y-108670000D03*
D23*
X168600000Y-102320000D03*
D24*
X148400000Y-107520000D03*
D22*
X154750000Y-88470000D03*
X154750000Y-108670000D03*
D21*
X149550000Y-108670000D03*
D23*
X148400000Y-102320000D03*
X168600000Y-94820000D03*
D24*
X168600000Y-89620000D03*
D23*
X148400000Y-94820000D03*
D24*
X148400000Y-89620000D03*
D22*
X162250000Y-88470000D03*
D24*
X168600000Y-107520000D03*
D21*
X149550000Y-88470000D03*
X167450000Y-108670000D03*
G04 #@! TD*
D13*
G04 #@! TO.C,L1*
X171736940Y-104793000D03*
X172706940Y-104793000D03*
G04 #@! TD*
D25*
G04 #@! TO.C,Q2*
X116620000Y-92390000D03*
X116620000Y-94290000D03*
X118620000Y-93340000D03*
G04 #@! TD*
D26*
G04 #@! TO.C,R1*
X107493000Y-101820000D03*
X107493000Y-100850000D03*
G04 #@! TD*
D27*
G04 #@! TO.C,R4*
X116765000Y-99630000D03*
X115795000Y-99630000D03*
G04 #@! TD*
D14*
G04 #@! TO.C,R6*
X113474700Y-97206300D03*
X113474700Y-98176300D03*
G04 #@! TD*
G04 #@! TO.C,R7*
X120270000Y-91915000D03*
X120270000Y-92885000D03*
G04 #@! TD*
D26*
G04 #@! TO.C,R8*
X119460000Y-103720000D03*
X119460000Y-102750000D03*
G04 #@! TD*
D13*
G04 #@! TO.C,R9*
X107843800Y-104818400D03*
X108813800Y-104818400D03*
G04 #@! TD*
D26*
G04 #@! TO.C,R12*
X128950000Y-94152800D03*
X128950000Y-93182800D03*
G04 #@! TD*
D28*
G04 #@! TO.C,U3*
X124440000Y-93865000D03*
X124440000Y-93215000D03*
X124440000Y-92565000D03*
X124440000Y-91915000D03*
X121720000Y-91915000D03*
X121720000Y-92565000D03*
X121720000Y-93215000D03*
X121720000Y-93865000D03*
D29*
X123080000Y-92890000D03*
G04 #@! TD*
D30*
G04 #@! TO.C,CN2*
X111922000Y-95000000D03*
X109922000Y-95000000D03*
D31*
X114272000Y-89250000D03*
X107572000Y-89250000D03*
G04 #@! TD*
D13*
G04 #@! TO.C,L2*
X171736940Y-92369860D03*
X172706940Y-92369860D03*
G04 #@! TD*
D27*
G04 #@! TO.C,FB1*
X111203800Y-98170000D03*
X110233800Y-98170000D03*
G04 #@! TD*
D26*
G04 #@! TO.C,R3*
X108813800Y-101821200D03*
X108813800Y-100851200D03*
G04 #@! TD*
D14*
G04 #@! TO.C,C1*
X108328000Y-97196000D03*
X108328000Y-98166000D03*
G04 #@! TD*
D27*
G04 #@! TO.C,R2*
X111203800Y-100856000D03*
X110233800Y-100856000D03*
G04 #@! TD*
D13*
G04 #@! TO.C,C9*
X110245000Y-102290000D03*
X111215000Y-102290000D03*
G04 #@! TD*
G04 #@! TO.C,C4*
X125955000Y-93790000D03*
X126925000Y-93790000D03*
G04 #@! TD*
G04 #@! TO.C,C5*
X125955000Y-94850000D03*
X126925000Y-94850000D03*
G04 #@! TD*
D32*
G04 #@! TO.C,SW3*
X138046000Y-100497120D03*
X138046000Y-104647120D03*
X135896000Y-100497120D03*
X135896000Y-104647120D03*
G04 #@! TD*
G04 #@! TO.C,SW1*
X127311960Y-100497120D03*
X127311960Y-104647120D03*
X125161960Y-100497120D03*
X125161960Y-104647120D03*
G04 #@! TD*
D25*
G04 #@! TO.C,Q1*
X116170400Y-96280000D03*
X116170400Y-98180000D03*
X118170400Y-97230000D03*
G04 #@! TD*
D33*
G04 #@! TO.C,U2*
X116760000Y-103645000D03*
X116760000Y-103195000D03*
X116760000Y-102745000D03*
X116760000Y-102295000D03*
X116760000Y-101845000D03*
X116760000Y-101395000D03*
X113660000Y-101395000D03*
X113660000Y-101845000D03*
X113660000Y-102295000D03*
X113660000Y-102745000D03*
X113660000Y-103195000D03*
X113660000Y-103645000D03*
G04 #@! TD*
D20*
G04 #@! TO.C,JP1*
X120929600Y-103726300D03*
X120929600Y-102151300D03*
G04 #@! TD*
D14*
G04 #@! TO.C,C13*
X128970000Y-103715000D03*
X128970000Y-104685000D03*
G04 #@! TD*
G04 #@! TO.C,C14*
X134177000Y-101610000D03*
X134177000Y-102580000D03*
G04 #@! TD*
G04 #@! TO.C,C12*
X123500000Y-103715000D03*
X123500000Y-104685000D03*
G04 #@! TD*
D26*
G04 #@! TO.C,R14*
X128970000Y-102580000D03*
X128970000Y-101610000D03*
G04 #@! TD*
G04 #@! TO.C,R15*
X134177000Y-104685000D03*
X134177000Y-103715000D03*
G04 #@! TD*
G04 #@! TO.C,R13*
X123500000Y-102580000D03*
X123500000Y-101610000D03*
G04 #@! TD*
D27*
G04 #@! TO.C,C3*
X108813800Y-103120000D03*
X107843800Y-103120000D03*
G04 #@! TD*
D32*
G04 #@! TO.C,SW2*
X132712000Y-100497120D03*
X132712000Y-104647120D03*
X130562000Y-100497120D03*
X130562000Y-104647120D03*
G04 #@! TD*
D34*
G04 #@! TO.C,D1*
X120269200Y-96733600D03*
X120269200Y-99593600D03*
G04 #@! TD*
D27*
G04 #@! TO.C,R5*
X114442300Y-99630000D03*
X113472300Y-99630000D03*
G04 #@! TD*
D35*
G04 #@! TO.C,U1*
X164700000Y-102595000D03*
X164700000Y-101445000D03*
X164700000Y-100295000D03*
X164700000Y-99145000D03*
X164700000Y-97995000D03*
X164700000Y-96845000D03*
X164700000Y-95695000D03*
X164700000Y-94545000D03*
D36*
X162525000Y-92370000D03*
X161375000Y-92370000D03*
X160225000Y-92370000D03*
X159075000Y-92370000D03*
X157925000Y-92370000D03*
X156775000Y-92370000D03*
X155625000Y-92370000D03*
X154475000Y-92370000D03*
D35*
X152300000Y-94545000D03*
X152300000Y-95695000D03*
X152300000Y-96845000D03*
X152300000Y-97995000D03*
X152300000Y-99145000D03*
X152300000Y-100295000D03*
X152300000Y-101445000D03*
X152300000Y-102595000D03*
D36*
X154475000Y-104770000D03*
X155625000Y-104770000D03*
X156775000Y-104770000D03*
X157925000Y-104770000D03*
X159075000Y-104770000D03*
X160225000Y-104770000D03*
X161375000Y-104770000D03*
X162525000Y-104770000D03*
D37*
X161500000Y-101570000D03*
D38*
X158500000Y-101570000D03*
X155500000Y-101570000D03*
X161500000Y-98570000D03*
X158500000Y-98570000D03*
X155500000Y-98570000D03*
X161500000Y-95570000D03*
X158500000Y-95570000D03*
X155500000Y-95570000D03*
G04 #@! TD*
D39*
G04 #@! TO.C,REF\u002A\u002A*
X176630000Y-92378000D03*
D40*
X177530000Y-95203000D03*
X177530000Y-89553000D03*
G04 #@! TD*
D39*
G04 #@! TO.C,REF\u002A\u002A*
X176620000Y-104793000D03*
D40*
X177520000Y-101968000D03*
X177520000Y-107618000D03*
G04 #@! TD*
M02*
