M48
; DRILL file {KiCad (6.0.4)} date Thu Jun 23 11:25:30 2022
; FORMAT={-:-/ absolute / metric / decimal}
; #@! TF.CreationDate,2022-06-23T11:25:30-03:00
; #@! TF.GenerationSoftware,Kicad,Pcbnew,(6.0.4)
; #@! TF.FileFunction,Plated,1,2,PTH
FMAT,2
METRIC
; #@! TA.AperFunction,Plated,PTH,ViaDrill
T1C0.200
; #@! TA.AperFunction,Plated,PTH,ViaDrill
T2C0.250
; #@! TA.AperFunction,Plated,PTH,ViaDrill
T3C0.400
; #@! TA.AperFunction,Plated,PTH,ComponentDrill
T4C0.500
; #@! TA.AperFunction,Plated,PTH,ComponentDrill
T5C0.550
; #@! TA.AperFunction,Plated,PTH,ComponentDrill
T6C1.000
; #@! TA.AperFunction,Plated,PTH,ViaDrill
T7C2.540
%
G90
G05
T1
X100.8Y-91.7
X100.8Y-93.1
X100.8Y-95.0
X100.8Y-96.8
X100.8Y-98.6
X100.8Y-100.5
X100.8Y-102.3
X100.8Y-103.9
X100.8Y-105.4
X102.3Y-91.7
X102.3Y-105.4
X102.4Y-103.9
X103.8Y-106.0
X103.9Y-91.1
X103.9Y-93.3
X104.5Y-87.7
X104.5Y-89.2
X104.7Y-103.1
X104.8Y-107.6
X104.8Y-109.1
X105.3Y-106.0
X106.0Y-87.7
X106.0Y-89.6
X106.0Y-91.4
X106.0Y-93.3
X106.39Y-103.11
X106.45Y-101.1
X106.7Y-95.96
X107.74Y-107.48
X108.32Y-95.97
X108.35Y-93.35
X109.47Y-100.14
X109.69Y-103.08
X109.738Y-104.818
X110.18Y-99.08
X110.2Y-107.66
X110.6Y-97.3
X110.84Y-89.25
X111.0Y-104.4
X111.43Y-106.38
X112.01Y-103.0
X112.044Y-100.856
X112.4Y-97.3
X112.425Y-101.895
X112.67Y-102.91
X112.69Y-107.67
X112.81Y-98.85
X112.82Y-101.27
X113.66Y-100.76
X113.67Y-96.0
X113.71Y-93.7
X113.95Y-106.34
X114.45Y-98.79
X114.58Y-100.82
X115.17Y-107.63
X115.63Y-94.97
X116.2Y-100.8
X116.76Y-104.15
X117.47Y-104.18
X117.81Y-107.7
X118.29Y-99.75
X118.39Y-95.94
X118.515Y-102.745
X118.71Y-100.62
X118.89Y-101.69
X119.22Y-104.47
X119.406Y-91.661
X120.29Y-89.53
X120.32Y-107.84
X120.34Y-98.11
X120.67Y-94.61
X120.76Y-105.28
X121.33Y-100.84
X121.77Y-106.7
X122.1Y-98.02
X122.28Y-104.79
X122.89Y-100.98
X122.9Y-89.4
X122.98Y-106.82
X123.08Y-90.89
X123.09Y-94.89
X123.78Y-95.77
X124.29Y-99.65
X124.34Y-105.37
X124.49Y-102.4
X124.59Y-95.79
X125.146Y-106.698
X125.41Y-107.89
X125.42Y-89.39
X126.07Y-101.78
X126.07Y-102.98
X126.07Y-104.68
X126.15Y-90.81
X126.15Y-92.3
X126.17Y-105.36
X126.18Y-98.01
X126.2Y-95.8
X126.34Y-99.67
X127.87Y-89.36
X127.97Y-107.83
X128.17Y-101.79
X128.17Y-102.97
X128.17Y-103.97
X128.2Y-94.3
X128.35Y-98.94
X128.48Y-98.01
X128.55Y-92.25
X129.19Y-95.86
X129.42Y-99.73
X129.7Y-95.01
X129.96Y-102.4
X130.51Y-89.46
X130.53Y-107.81
X130.9Y-94.6
X131.32Y-103.41
X131.63Y-99.88
X133.05Y-89.32
X133.06Y-107.84
X133.24Y-101.76
X133.25Y-103.44
X133.48Y-105.22
X134.22Y-99.93
X134.87Y-94.77
X135.15Y-92.26
X135.23Y-98.34
X135.23Y-102.4
X135.59Y-89.34
X135.61Y-107.76
X135.896Y-103.174
X136.14Y-107.07
X136.92Y-99.74
X137.16Y-95.97
X137.9Y-93.78
X138.04Y-102.4
X138.11Y-108.13
X138.12Y-107.5
X138.14Y-89.48
X138.41Y-92.56
X138.45Y-97.17
X138.72Y-106.55
X139.06Y-105.26
X139.27Y-94.41
X139.37Y-91.8
X139.59Y-104.15
X139.74Y-102.8
X139.8Y-101.21
X140.28Y-96.02
X140.28Y-97.88
X140.65Y-108.01
X140.68Y-89.21
X140.68Y-101.09
X141.06Y-104.98
X141.12Y-92.83
X141.625Y-103.635
X141.74Y-94.42
X142.03Y-96.05
X142.43Y-97.89
X142.62Y-94.14
X142.665Y-106.405
X142.8Y-105.0
X143.19Y-107.98
X143.29Y-89.23
X143.31Y-99.6
X143.37Y-102.16
X143.54Y-92.86
X143.92Y-96.01
X144.16Y-105.45
X144.16Y-106.55
X144.22Y-101.65
X144.7Y-97.9
X145.09Y-92.32
X145.73Y-96.05
X145.97Y-99.59
X146.29Y-88.31
X146.38Y-93.58
X146.52Y-106.69
X146.56Y-103.51
X146.56Y-105.41
X146.67Y-108.7
X146.75Y-92.35
X146.78Y-100.35
X146.9Y-89.6
X146.91Y-98.14
X146.92Y-107.49
X147.09Y-96.2
X147.19Y-94.94
X147.19Y-93.51
X147.28Y-90.87
X147.32Y-102.25
X147.33Y-103.49
X147.48Y-91.71
X147.89Y-100.31
X148.6Y-98.62
X149.37Y-94.34
X149.54Y-97.03
X149.55Y-89.5
X150.8Y-91.13
X150.8Y-92.38
X152.22Y-108.68
X152.832Y-92.982
X152.85Y-91.13
X153.2Y-103.6
X154.45Y-96.62
X154.45Y-99.62
X155.02Y-90.67
X155.5Y-95.57
X155.5Y-98.57
X155.5Y-101.57
X156.55Y-94.52
X156.55Y-97.52
X156.55Y-100.52
X156.775Y-90.595
X157.45Y-96.62
X157.45Y-99.62
X157.925Y-90.595
X158.49Y-108.66
X158.5Y-95.57
X158.5Y-98.57
X158.5Y-101.57
X158.97Y-89.21
X159.075Y-90.595
X159.08Y-106.94
X159.55Y-94.52
X159.55Y-97.52
X159.55Y-100.52
X160.198Y-106.698
X160.225Y-90.595
X160.27Y-88.41
X160.45Y-96.62
X160.45Y-99.62
X160.45Y-102.62
X161.38Y-106.94
X161.5Y-95.57
X161.5Y-98.57
X161.5Y-101.57
X162.55Y-97.52
X162.55Y-100.52
X163.45Y-89.93
X163.51Y-91.57
X163.51Y-93.16
X164.008Y-106.952
X164.135Y-103.65
X164.51Y-91.57
X164.51Y-93.16
X164.73Y-108.7
X164.77Y-104.539
X164.78Y-88.5
X165.51Y-91.57
X165.51Y-93.16
X166.04Y-105.301
X166.26Y-90.07
X166.294Y-103.396
X166.51Y-91.57
X166.51Y-93.16
X166.63Y-98.56
X166.79Y-106.94
X166.88Y-97.35
X166.929Y-102.253
X166.929Y-103.777
X167.437Y-105.682
X167.51Y-91.57
X167.51Y-93.16
X167.564Y-104.031
X167.99Y-97.35
X168.99Y-97.2
X169.98Y-95.91
X170.08Y-88.48
X170.16Y-103.99
X170.18Y-91.57
X170.29Y-94.58
X171.16Y-103.99
X171.16Y-105.58
X171.18Y-91.57
X171.18Y-93.16
X171.501Y-87.902
X171.501Y-90.442
X171.501Y-106.698
X171.501Y-109.238
X171.53Y-94.5
X171.53Y-97.04
X171.53Y-99.58
X171.53Y-102.12
X172.16Y-103.99
X172.16Y-105.58
X172.18Y-91.57
X172.18Y-93.16
X173.16Y-103.99
X173.16Y-105.58
X173.18Y-91.57
X173.18Y-93.16
X173.501Y-87.902
X173.501Y-90.442
X173.501Y-106.698
X173.501Y-109.238
X173.53Y-94.5
X173.53Y-97.04
X173.53Y-99.58
X173.53Y-102.12
X174.16Y-103.99
X174.18Y-91.57
X175.501Y-87.902
X175.501Y-109.238
X175.53Y-97.04
X175.53Y-99.58
X175.57Y-103.71
X175.57Y-105.86
X175.59Y-91.29
X175.59Y-93.44
X177.53Y-97.04
X177.53Y-99.58
X177.61Y-87.91
X177.61Y-109.25
X179.2Y-103.35
X179.25Y-90.9
X179.25Y-106.3
X179.3Y-93.85
X179.53Y-97.04
X179.53Y-99.58
T2
X131.29Y-101.74
X132.98Y-96.0
X136.93Y-101.79
X136.95Y-103.66
X139.94Y-102.14
X141.44Y-102.15
X149.84Y-102.23
X149.85Y-103.6
T3
X117.65Y-91.24
X123.47Y-98.773
T6
X106.35Y-108.73
X108.89Y-108.73
X111.43Y-108.73
X113.97Y-108.73
X116.509Y-88.41
X116.51Y-108.73
X119.049Y-88.41
X119.05Y-108.73
X121.589Y-88.41
X121.59Y-108.73
X124.129Y-88.41
X124.13Y-108.73
X126.669Y-88.41
X126.67Y-108.73
X129.209Y-88.41
X129.21Y-108.73
X131.491Y-93.175
X131.491Y-97.27
X131.749Y-88.41
X131.75Y-108.73
X134.031Y-93.175
X134.031Y-97.27
X134.289Y-88.41
X134.29Y-108.73
X136.829Y-88.41
X136.83Y-108.73
X139.369Y-88.41
X139.37Y-108.73
X141.909Y-88.41
X141.91Y-108.73
X144.449Y-88.41
X144.45Y-108.73
T7
X102.54Y-89.68
X102.54Y-107.46
T4
G00X102.625Y-95.07
M15
G01X101.975Y-95.07
M16
G05
G00X102.625Y-102.07
M15
G01X101.975Y-102.07
M16
G05
T5
G00X105.0Y-95.92
M15
G01X105.0Y-96.22
M16
G05
G00X105.0Y-100.92
M15
G01X105.0Y-101.22
M16
G05
T0
M30
