G04 #@! TF.GenerationSoftware,KiCad,Pcbnew,(6.0.4)*
G04 #@! TF.CreationDate,2022-06-23T11:25:04-03:00*
G04 #@! TF.ProjectId,HTLRBL32L-10_EvB_V1.0_Rev6.1,48544c52-424c-4333-924c-2d31305f4576,6.0*
G04 #@! TF.SameCoordinates,Original*
G04 #@! TF.FileFunction,Other,User*
%FSLAX46Y46*%
G04 Gerber Fmt 4.6, Leading zero omitted, Abs format (unit mm)*
G04 Created by KiCad (PCBNEW (6.0.4)) date 2022-06-23 11:25:04*
%MOMM*%
%LPD*%
G01*
G04 APERTURE LIST*
G04 #@! TA.AperFunction,Profile*
%ADD10C,0.050000*%
G04 #@! TD*
%ADD11C,0.050000*%
G04 APERTURE END LIST*
D10*
X100000000Y-88664000D02*
X100000000Y-108476000D01*
X180010000Y-108476000D02*
X180010000Y-88664000D01*
X101524000Y-87140000D02*
G75*
G03*
X100000000Y-88664000I0J-1524000D01*
G01*
X180010000Y-88664000D02*
G75*
G03*
X178486000Y-87140000I-1524000J0D01*
G01*
X178486000Y-110000000D02*
G75*
G03*
X180010000Y-108476000I0J1524000D01*
G01*
X178486000Y-87140000D02*
X101524000Y-87140002D01*
X100000000Y-108476000D02*
G75*
G03*
X101524000Y-110000000I1524000J0D01*
G01*
X101524000Y-110000000D02*
X178486000Y-110000000D01*
D11*
G04 #@! TO.C,C2*
X110756400Y-99160000D02*
X112616400Y-99160000D01*
X110756400Y-100100000D02*
X110756400Y-99160000D01*
X112616400Y-99160000D02*
X112616400Y-100100000D01*
X112616400Y-100100000D02*
X110756400Y-100100000D01*
G04 #@! TO.C,C6*
X123495500Y-97533780D02*
X121635500Y-97533780D01*
X123495500Y-96593780D02*
X123495500Y-97533780D01*
X121635500Y-97533780D02*
X121635500Y-96593780D01*
X121635500Y-96593780D02*
X123495500Y-96593780D01*
G04 #@! TO.C,C7*
X121635500Y-96212980D02*
X121635500Y-95272980D01*
X123495500Y-96212980D02*
X121635500Y-96212980D01*
X123495500Y-95272980D02*
X123495500Y-96212980D01*
X121635500Y-95272980D02*
X123495500Y-95272980D01*
G04 #@! TO.C,C8*
X117750000Y-105138800D02*
X117750000Y-103278800D01*
X118690000Y-103278800D02*
X118690000Y-105138800D01*
X118690000Y-105138800D02*
X117750000Y-105138800D01*
X117750000Y-103278800D02*
X118690000Y-103278800D01*
G04 #@! TO.C,C15*
X169805500Y-104351000D02*
X170745500Y-104351000D01*
X170745500Y-106211000D02*
X169805500Y-106211000D01*
X169805500Y-106211000D02*
X169805500Y-104351000D01*
X170745500Y-104351000D02*
X170745500Y-106211000D01*
G04 #@! TO.C,C16*
X169805500Y-91925000D02*
X170745500Y-91925000D01*
X169805500Y-93785000D02*
X169805500Y-91925000D01*
X170745500Y-93785000D02*
X169805500Y-93785000D01*
X170745500Y-91925000D02*
X170745500Y-93785000D01*
G04 #@! TO.C,C17*
X173620000Y-104348000D02*
X174560000Y-104348000D01*
X174560000Y-106208000D02*
X173620000Y-106208000D01*
X174560000Y-104348000D02*
X174560000Y-106208000D01*
X173620000Y-106208000D02*
X173620000Y-104348000D01*
G04 #@! TO.C,C18*
X173620000Y-91920000D02*
X174560000Y-91920000D01*
X174560000Y-93780000D02*
X173620000Y-93780000D01*
X173620000Y-93780000D02*
X173620000Y-91920000D01*
X174560000Y-91920000D02*
X174560000Y-93780000D01*
G04 #@! TO.C,CN1*
X105925000Y-94320000D02*
X105925000Y-102820000D01*
X99370000Y-103295000D02*
X100150000Y-102820000D01*
X99370000Y-103295000D02*
X99370000Y-93845000D01*
X100150000Y-102820000D02*
X105925000Y-102820000D01*
X100150000Y-94320000D02*
X105925000Y-94320000D01*
X99370000Y-93845000D02*
X100150000Y-94320000D01*
G04 #@! TO.C,D2*
X106686900Y-105548400D02*
X103726900Y-105548400D01*
X103726900Y-105548400D02*
X103726900Y-104088400D01*
X106686900Y-104088400D02*
X106686900Y-105548400D01*
X103726900Y-104088400D02*
X106686900Y-104088400D01*
G04 #@! TO.C,D3*
X126520000Y-95582500D02*
X127980000Y-95582500D01*
X127980000Y-95582500D02*
X127980000Y-98542500D01*
X127980000Y-98542500D02*
X126520000Y-98542500D01*
X126520000Y-98542500D02*
X126520000Y-95582500D01*
G04 #@! TO.C,JP2*
X129690920Y-95469520D02*
X129690920Y-99069520D01*
X135840920Y-95469520D02*
X129690920Y-95469520D01*
X135840920Y-99069520D02*
X135840920Y-95469520D01*
X129690920Y-99069520D02*
X135840920Y-99069520D01*
G04 #@! TO.C,JP3*
X129690920Y-91375040D02*
X129690920Y-94975040D01*
X135840920Y-94975040D02*
X135840920Y-91375040D01*
X135840920Y-91375040D02*
X129690920Y-91375040D01*
X129690920Y-94975040D02*
X135840920Y-94975040D01*
G04 #@! TO.C,L1*
X173151940Y-105263000D02*
X171291940Y-105263000D01*
X173151940Y-104323000D02*
X173151940Y-105263000D01*
X171291940Y-105263000D02*
X171291940Y-104323000D01*
X171291940Y-104323000D02*
X173151940Y-104323000D01*
G04 #@! TO.C,Q2*
X119320000Y-91590000D02*
X119320000Y-95090000D01*
X119320000Y-95090000D02*
X115920000Y-95090000D01*
X115920000Y-91590000D02*
X119320000Y-91590000D01*
X115920000Y-95090000D02*
X115920000Y-91590000D01*
G04 #@! TO.C,R1*
X107023000Y-100405000D02*
X107963000Y-100405000D01*
X107963000Y-102265000D02*
X107023000Y-102265000D01*
X107023000Y-102265000D02*
X107023000Y-100405000D01*
X107963000Y-100405000D02*
X107963000Y-102265000D01*
G04 #@! TO.C,R4*
X115350000Y-99160000D02*
X117210000Y-99160000D01*
X115350000Y-100100000D02*
X115350000Y-99160000D01*
X117210000Y-99160000D02*
X117210000Y-100100000D01*
X117210000Y-100100000D02*
X115350000Y-100100000D01*
G04 #@! TO.C,R6*
X113944700Y-98621300D02*
X113004700Y-98621300D01*
X113944700Y-96761300D02*
X113944700Y-98621300D01*
X113004700Y-98621300D02*
X113004700Y-96761300D01*
X113004700Y-96761300D02*
X113944700Y-96761300D01*
G04 #@! TO.C,R7*
X119800000Y-93330000D02*
X119800000Y-91470000D01*
X119800000Y-91470000D02*
X120740000Y-91470000D01*
X120740000Y-91470000D02*
X120740000Y-93330000D01*
X120740000Y-93330000D02*
X119800000Y-93330000D01*
G04 #@! TO.C,R8*
X118990000Y-104165000D02*
X118990000Y-102305000D01*
X119930000Y-102305000D02*
X119930000Y-104165000D01*
X118990000Y-102305000D02*
X119930000Y-102305000D01*
X119930000Y-104165000D02*
X118990000Y-104165000D01*
G04 #@! TO.C,R9*
X107398800Y-104348400D02*
X109258800Y-104348400D01*
X109258800Y-104348400D02*
X109258800Y-105288400D01*
X107398800Y-105288400D02*
X107398800Y-104348400D01*
X109258800Y-105288400D02*
X107398800Y-105288400D01*
G04 #@! TO.C,R12*
X129420000Y-92737800D02*
X129420000Y-94597800D01*
X129420000Y-94597800D02*
X128480000Y-94597800D01*
X128480000Y-94597800D02*
X128480000Y-92737800D01*
X128480000Y-92737800D02*
X129420000Y-92737800D01*
G04 #@! TO.C,U3*
X124832600Y-91137400D02*
X124832600Y-91758600D01*
X121327400Y-91137400D02*
X124832600Y-91137400D01*
X124832600Y-94642600D02*
X121327400Y-94642600D01*
X121327400Y-91758600D02*
X121327400Y-91137400D01*
X124832600Y-91758600D02*
X124832600Y-94021400D01*
X121327400Y-94021400D02*
X121327400Y-91758600D01*
X121327400Y-94642600D02*
X121327400Y-94021400D01*
X121327400Y-94642600D02*
X121327400Y-94021400D01*
X124832600Y-94642600D02*
X121327400Y-94642600D01*
X121327400Y-91137400D02*
X124832600Y-91137400D01*
X124832600Y-94021400D02*
X124832600Y-94642600D01*
X121327400Y-94021400D02*
X121327400Y-91758600D01*
X124832600Y-91758600D02*
X124832600Y-94021400D01*
X124832600Y-91137400D02*
X124832600Y-91758600D01*
X124832600Y-94021400D02*
X124832600Y-94642600D01*
X121327400Y-91758600D02*
X121327400Y-91137400D01*
G04 #@! TO.C,CN2*
X115272000Y-87300000D02*
X115272000Y-95600000D01*
X115272000Y-95600000D02*
X112672000Y-95600000D01*
X109172000Y-95600000D02*
X106572000Y-95600000D01*
X106572000Y-95600000D02*
X106572000Y-87300000D01*
X106572000Y-87300000D02*
X115272000Y-87300000D01*
X112672000Y-97000000D02*
X109172000Y-97000000D01*
X112672000Y-95600000D02*
X112672000Y-97000000D01*
X109172000Y-97000000D02*
X109172000Y-95600000D01*
G04 #@! TO.C,CN4*
X114708820Y-90210000D02*
X146258820Y-90210000D01*
X146258820Y-90210000D02*
X146258820Y-86610000D01*
X146258820Y-86610000D02*
X114708820Y-86610000D01*
X114708820Y-86610000D02*
X114708820Y-90210000D01*
G04 #@! TO.C,L2*
X171291940Y-92839860D02*
X171291940Y-91899860D01*
X173151940Y-91899860D02*
X173151940Y-92839860D01*
X171291940Y-91899860D02*
X173151940Y-91899860D01*
X173151940Y-92839860D02*
X171291940Y-92839860D01*
G04 #@! TO.C,FB1*
X111648800Y-97700000D02*
X111648800Y-98640000D01*
X111648800Y-98640000D02*
X109788800Y-98640000D01*
X109788800Y-97700000D02*
X111648800Y-97700000D01*
X109788800Y-98640000D02*
X109788800Y-97700000D01*
G04 #@! TO.C,R3*
X108343800Y-102266200D02*
X108343800Y-100406200D01*
X108343800Y-100406200D02*
X109283800Y-100406200D01*
X109283800Y-102266200D02*
X108343800Y-102266200D01*
X109283800Y-100406200D02*
X109283800Y-102266200D01*
G04 #@! TO.C,C1*
X107858000Y-98611000D02*
X107858000Y-96751000D01*
X108798000Y-98611000D02*
X107858000Y-98611000D01*
X108798000Y-96751000D02*
X108798000Y-98611000D01*
X107858000Y-96751000D02*
X108798000Y-96751000D01*
G04 #@! TO.C,R2*
X111648800Y-100386000D02*
X111648800Y-101326000D01*
X109788800Y-100386000D02*
X111648800Y-100386000D01*
X111648800Y-101326000D02*
X109788800Y-101326000D01*
X109788800Y-101326000D02*
X109788800Y-100386000D01*
G04 #@! TO.C,C9*
X109800000Y-102760000D02*
X109800000Y-101820000D01*
X111660000Y-101820000D02*
X111660000Y-102760000D01*
X109800000Y-101820000D02*
X111660000Y-101820000D01*
X111660000Y-102760000D02*
X109800000Y-102760000D01*
G04 #@! TO.C,C4*
X127370000Y-93320000D02*
X127370000Y-94260000D01*
X127370000Y-94260000D02*
X125510000Y-94260000D01*
X125510000Y-94260000D02*
X125510000Y-93320000D01*
X125510000Y-93320000D02*
X127370000Y-93320000D01*
G04 #@! TO.C,C5*
X127370000Y-94380000D02*
X127370000Y-95320000D01*
X127370000Y-95320000D02*
X125510000Y-95320000D01*
X125510000Y-94380000D02*
X127370000Y-94380000D01*
X125510000Y-95320000D02*
X125510000Y-94380000D01*
G04 #@! TO.C,Q1*
X118870400Y-98980000D02*
X115470400Y-98980000D01*
X118870400Y-95480000D02*
X118870400Y-98980000D01*
X115470400Y-98980000D02*
X115470400Y-95480000D01*
X115470400Y-95480000D02*
X118870400Y-95480000D01*
G04 #@! TO.C,U2*
X117335000Y-100770000D02*
X113085000Y-100770000D01*
X117335000Y-104270000D02*
X113085000Y-104270000D01*
X113085000Y-104270000D02*
X113085000Y-100770000D01*
X117335000Y-104270000D02*
X117335000Y-100770000D01*
G04 #@! TO.C,JP1*
X121659600Y-101458800D02*
X121659600Y-104418800D01*
X120199600Y-104418800D02*
X120199600Y-101458800D01*
X121659600Y-104418800D02*
X120199600Y-104418800D01*
X120199600Y-101458800D02*
X121659600Y-101458800D01*
G04 #@! TO.C,C13*
X129440000Y-105130000D02*
X128500000Y-105130000D01*
X128500000Y-105130000D02*
X128500000Y-103270000D01*
X128500000Y-103270000D02*
X129440000Y-103270000D01*
X129440000Y-103270000D02*
X129440000Y-105130000D01*
G04 #@! TO.C,C14*
X133707000Y-103025000D02*
X133707000Y-101165000D01*
X133707000Y-101165000D02*
X134647000Y-101165000D01*
X134647000Y-101165000D02*
X134647000Y-103025000D01*
X134647000Y-103025000D02*
X133707000Y-103025000D01*
G04 #@! TO.C,C12*
X123970000Y-105130000D02*
X123030000Y-105130000D01*
X123970000Y-103270000D02*
X123970000Y-105130000D01*
X123030000Y-103270000D02*
X123970000Y-103270000D01*
X123030000Y-105130000D02*
X123030000Y-103270000D01*
G04 #@! TO.C,R14*
X129440000Y-101165000D02*
X129440000Y-103025000D01*
X128500000Y-101165000D02*
X129440000Y-101165000D01*
X129440000Y-103025000D02*
X128500000Y-103025000D01*
X128500000Y-103025000D02*
X128500000Y-101165000D01*
G04 #@! TO.C,R15*
X134647000Y-105130000D02*
X133707000Y-105130000D01*
X133707000Y-105130000D02*
X133707000Y-103270000D01*
X133707000Y-103270000D02*
X134647000Y-103270000D01*
X134647000Y-103270000D02*
X134647000Y-105130000D01*
G04 #@! TO.C,R13*
X123030000Y-103025000D02*
X123030000Y-101165000D01*
X123970000Y-103025000D02*
X123030000Y-103025000D01*
X123970000Y-101165000D02*
X123970000Y-103025000D01*
X123030000Y-101165000D02*
X123970000Y-101165000D01*
G04 #@! TO.C,C3*
X109258800Y-103590000D02*
X107398800Y-103590000D01*
X107398800Y-103590000D02*
X107398800Y-102650000D01*
X109258800Y-102650000D02*
X109258800Y-103590000D01*
X107398800Y-102650000D02*
X109258800Y-102650000D01*
G04 #@! TO.C,D1*
X119119200Y-100513600D02*
X119119200Y-95813600D01*
X121419200Y-100513600D02*
X119119200Y-100513600D01*
X121419200Y-95813600D02*
X121419200Y-100513600D01*
X119119200Y-95813600D02*
X121419200Y-95813600D01*
G04 #@! TO.C,R5*
X113027300Y-100100000D02*
X113027300Y-99160000D01*
X114887300Y-99160000D02*
X114887300Y-100100000D01*
X114887300Y-100100000D02*
X113027300Y-100100000D01*
X113027300Y-99160000D02*
X114887300Y-99160000D01*
G04 #@! TO.C,CN3*
X146250000Y-110530000D02*
X146250000Y-106930000D01*
X146250000Y-106930000D02*
X104550000Y-106930000D01*
X104550000Y-106930000D02*
X104550000Y-110530000D01*
X104550000Y-110530000D02*
X146250000Y-110530000D01*
G04 #@! TO.C,REF\u002A\u002A*
X180130000Y-96378000D02*
X174930000Y-96378000D01*
X180130000Y-96058000D02*
X180130000Y-96378000D01*
X180130000Y-88698000D02*
X189650000Y-88698000D01*
X180130000Y-88378000D02*
X174930000Y-88378000D01*
X174930000Y-96378000D02*
X174930000Y-88378000D01*
X189650000Y-96058000D02*
X180130000Y-96058000D01*
X180130000Y-88698000D02*
X180130000Y-88378000D01*
X189650000Y-88698000D02*
X189650000Y-96058000D01*
X189640000Y-108473000D02*
X180120000Y-108473000D01*
X189640000Y-101113000D02*
X189640000Y-108473000D01*
X174920000Y-108793000D02*
X174920000Y-100793000D01*
X180120000Y-108473000D02*
X180120000Y-108793000D01*
X180120000Y-100793000D02*
X174920000Y-100793000D01*
X180120000Y-101113000D02*
X180120000Y-100793000D01*
X180120000Y-101113000D02*
X189640000Y-101113000D01*
X180120000Y-108793000D02*
X174920000Y-108793000D01*
G04 #@! TD*
M02*
