G04 #@! TF.GenerationSoftware,KiCad,Pcbnew,(6.0.4)*
G04 #@! TF.CreationDate,2022-06-23T11:25:04-03:00*
G04 #@! TF.ProjectId,HTLRBL32L-10_EvB_V1.0_Rev6.1,48544c52-424c-4333-924c-2d31305f4576,6.0*
G04 #@! TF.SameCoordinates,Original*
G04 #@! TF.FileFunction,Soldermask,Bot*
G04 #@! TF.FilePolarity,Negative*
%FSLAX46Y46*%
G04 Gerber Fmt 4.6, Leading zero omitted, Abs format (unit mm)*
G04 Created by KiCad (PCBNEW (6.0.4)) date 2022-06-23 11:25:04*
%MOMM*%
%LPD*%
G01*
G04 APERTURE LIST*
G04 #@! TA.AperFunction,Profile*
%ADD10C,0.050000*%
G04 #@! TD*
%ADD11O,0.650000X1.300000*%
%ADD12O,1.550000X0.775000*%
%ADD13R,1.700000X1.700000*%
%ADD14O,1.700000X1.700000*%
%ADD15R,4.200000X1.350000*%
G04 APERTURE END LIST*
D10*
X100000000Y-88664000D02*
X100000000Y-108476000D01*
X180010000Y-108476000D02*
X180010000Y-88664000D01*
X101524000Y-87140000D02*
G75*
G03*
X100000000Y-88664000I0J-1524000D01*
G01*
X180010000Y-88664000D02*
G75*
G03*
X178486000Y-87140000I-1524000J0D01*
G01*
X178486000Y-110000000D02*
G75*
G03*
X180010000Y-108476000I0J1524000D01*
G01*
X178486000Y-87140000D02*
X101524000Y-87140002D01*
X100000000Y-108476000D02*
G75*
G03*
X101524000Y-110000000I1524000J0D01*
G01*
X101524000Y-110000000D02*
X178486000Y-110000000D01*
D11*
G04 #@! TO.C,CN1*
X105000000Y-96070000D03*
X105000000Y-101070000D03*
D12*
X102300000Y-95070000D03*
X102300000Y-102070000D03*
G04 #@! TD*
D13*
G04 #@! TO.C,JP2*
X131490920Y-97269520D03*
D14*
X134030920Y-97269520D03*
G04 #@! TD*
D13*
G04 #@! TO.C,JP3*
X131490920Y-93175040D03*
D14*
X134030920Y-93175040D03*
G04 #@! TD*
D13*
G04 #@! TO.C,CN4*
X116508820Y-88410000D03*
D14*
X119048820Y-88410000D03*
X121588820Y-88410000D03*
X124128820Y-88410000D03*
X126668820Y-88410000D03*
X129208820Y-88410000D03*
X131748820Y-88410000D03*
X134288820Y-88410000D03*
X136828820Y-88410000D03*
X139368820Y-88410000D03*
X141908820Y-88410000D03*
X144448820Y-88410000D03*
G04 #@! TD*
D13*
G04 #@! TO.C,CN3*
X106350000Y-108730000D03*
D14*
X108890000Y-108730000D03*
X111430000Y-108730000D03*
X113970000Y-108730000D03*
X116510000Y-108730000D03*
X119050000Y-108730000D03*
X121590000Y-108730000D03*
X124130000Y-108730000D03*
X126670000Y-108730000D03*
X129210000Y-108730000D03*
X131750000Y-108730000D03*
X134290000Y-108730000D03*
X136830000Y-108730000D03*
X139370000Y-108730000D03*
X141910000Y-108730000D03*
X144450000Y-108730000D03*
G04 #@! TD*
D15*
G04 #@! TO.C,REF\u002A\u002A*
X177530000Y-95203000D03*
X177530000Y-89553000D03*
G04 #@! TD*
G04 #@! TO.C,REF\u002A\u002A*
X177520000Y-101968000D03*
X177520000Y-107618000D03*
G04 #@! TD*
M02*
